<?xml version="1.0" encoding="UTF-8"?>
<svg width="1440" height="1024" viewBox="0 0 1440 1024" fill="none" xmlns="http://www.w3.org/2000/svg" xmlns:xlink="http://www.w3.org/1999/xlink">
<rect width="1440" height="1024" fill="#050505"/>
<g id="slide_03_principles_requirements"><g id="bg_floor" opacity="0.05"><line x1="-30.0" y1="1060" x2="600.0" y2="700" stroke="#3B4654" stroke-width="1" stroke-linecap="butt"/><line x1="63.75" y1="1060" x2="615.0" y2="700" stroke="#3B4654" stroke-width="1" stroke-linecap="butt"/><line x1="157.5" y1="1060" x2="630.0" y2="700" stroke="#3B4654" stroke-width="1" stroke-linecap="butt"/><line x1="251.25" y1="1060" x2="645.0" y2="700" stroke="#3B4654" stroke-width="1" stroke-linecap="butt"/><line x1="345.0" y1="1060" x2="660.0" y2="700" stroke="#3B4654" stroke-width="1" stroke-linecap="butt"/><line x1="438.75" y1="1060" x2="675.0" y2="700" stroke="#3B4654" stroke-width="1" stroke-linecap="butt"/><line x1="532.5" y1="1060" x2="690.0" y2="700" stroke="#3B4654" stroke-width="1" stroke-linecap="butt"/><line x1="626.25" y1="1060" x2="705.0" y2="700" stroke="#3B4654" stroke-width="1" stroke-linecap="butt"/><line x1="720.0" y1="1060" x2="720.0" y2="700" stroke="#3B4654" stroke-width="1" stroke-linecap="butt"/><line x1="813.75" y1="1060" x2="735.0" y2="700" stroke="#3B4654" stroke-width="1" stroke-linecap="butt"/><line x1="907.5" y1="1060" x2="750.0" y2="700" stroke="#3B4654" stroke-width="1" stroke-linecap="butt"/><line x1="1001.25" y1="1060" x2="765.0" y2="700" stroke="#3B4654" stroke-width="1" stroke-linecap="butt"/><line x1="1095.0" y1="1060" x2="780.0" y2="700" stroke="#3B4654" stroke-width="1" stroke-linecap="butt"/><line x1="1188.75" y1="1060" x2="795.0" y2="700" stroke="#3B4654" stroke-width="1" stroke-linecap="butt"/><line x1="1282.5" y1="1060" x2="810.0" y2="700" stroke="#3B4654" stroke-width="1" stroke-linecap="butt"/><line x1="1376.25" y1="1060" x2="825.0" y2="700" stroke="#3B4654" stroke-width="1" stroke-linecap="butt"/><line x1="1470.0" y1="1060" x2="840.0" y2="700" stroke="#3B4654" stroke-width="1" stroke-linecap="butt"/><line x1="-30.0" y1="1060.0" x2="1470.0" y2="1060.0" stroke="#3B4654" stroke-width="1" stroke-linecap="butt"/><line x1="48.75" y1="1015.0" x2="1391.25" y2="1015.0" stroke="#3B4654" stroke-width="1" stroke-linecap="butt"/><line x1="127.5" y1="970.0" x2="1312.5" y2="970.0" stroke="#3B4654" stroke-width="1" stroke-linecap="butt"/><line x1="206.25" y1="925.0" x2="1233.75" y2="925.0" stroke="#3B4654" stroke-width="1" stroke-linecap="butt"/><line x1="285.0" y1="880.0" x2="1155.0" y2="880.0" stroke="#3B4654" stroke-width="1" stroke-linecap="butt"/><line x1="363.75" y1="835.0" x2="1076.25" y2="835.0" stroke="#3B4654" stroke-width="1" stroke-linecap="butt"/><line x1="442.5" y1="790.0" x2="997.5" y2="790.0" stroke="#3B4654" stroke-width="1" stroke-linecap="butt"/><line x1="521.25" y1="745.0" x2="918.75" y2="745.0" stroke="#3B4654" stroke-width="1" stroke-linecap="butt"/><line x1="600.0" y1="700.0" x2="840.0" y2="700.0" stroke="#3B4654" stroke-width="1" stroke-linecap="butt"/></g><g id="chrome"><text x="96" y="60" font-family="Archivo, 'Helvetica Neue', Arial, sans-serif" font-size="12.5" fill="#F4F1E9" font-weight="700" letter-spacing="3.2">THE FIRST HOUR</text><text x="96" y="76" font-family="Archivo, 'Helvetica Neue', Arial, sans-serif" font-size="10" fill="#666B73" font-weight="600" letter-spacing="3.2">MAKING BLENDER LEGIBLE</text><text x="1344" y="60" font-family="Archivo, 'Helvetica Neue', Arial, sans-serif" font-size="12.5" fill="#90959C" font-weight="600" text-anchor="end" letter-spacing="2.6">03 / PRINCIPLES → REQUIREMENTS</text><text x="1344" y="76" font-family="'IBM Plex Mono', 'SFMono-Regular', Menlo, monospace" font-size="10" fill="#EA7600" font-weight="500" text-anchor="end" letter-spacing="1">03 — 07</text><line x1="96" y1="84" x2="1344" y2="84" stroke="#202227" stroke-width="1" stroke-linecap="butt"/><line x1="96" y1="960" x2="1344" y2="960" stroke="#202227" stroke-width="1" stroke-linecap="butt"/><text x="96" y="980" font-family="Archivo, 'Helvetica Neue', Arial, sans-serif" font-size="10" fill="#666B73" font-weight="600" letter-spacing="2.6">ALEXANDRA SUGATAN</text><text x="264" y="980" font-family="Archivo, 'Helvetica Neue', Arial, sans-serif" font-size="10" fill="#3C414A" font-weight="600" letter-spacing="2.6">UX / UI RESEARCH · PRODUCT DESIGN</text><text x="1344" y="980" font-family="'IBM Plex Mono', 'SFMono-Regular', Menlo, monospace" font-size="10" fill="#3C414A" font-weight="400" text-anchor="end" letter-spacing="1">COGS 127 · THE FIRST HOUR</text></g><text x="96" y="150" font-family="Archivo, 'Helvetica Neue', Arial, sans-serif" font-size="11" fill="#EA7600" font-weight="700" letter-spacing="3">DESIGN PRINCIPLES  ·  MADE BUILDABLE</text><text x="96" y="200" font-family="Newsreader, 'Times New Roman', Georgia, serif" font-size="43" fill="#F4F1E9" font-weight="500">From principle to requirement.</text><text x="96" y="240" font-family="Newsreader, 'Times New Roman', Georgia, serif" font-size="14.5" fill="#CBC7BE"><tspan x="96" dy="0">Six read-the-room principles, traced to the seven things the product must actually do. Orange marks the primary driver; the</tspan><tspan x="96" dy="20">faint lines are supporting pull.</tspan></text><text x="96" y="300" font-family="Archivo, 'Helvetica Neue', Arial, sans-serif" font-size="10.5" fill="#90959C" font-weight="700" letter-spacing="2.6">DESIGN PRINCIPLE</text><text x="596" y="300" font-family="'IBM Plex Mono', 'SFMono-Regular', Menlo, monospace" font-size="9.5" fill="#3C414A" font-weight="500" text-anchor="end" letter-spacing="1">0 — 6</text><text x="824" y="300" font-family="Archivo, 'Helvetica Neue', Arial, sans-serif" font-size="10.5" fill="#90959C" font-weight="700" letter-spacing="2.6">PRODUCT REQUIREMENT</text><text x="1344" y="300" font-family="'IBM Plex Mono', 'SFMono-Regular', Menlo, monospace" font-size="9.5" fill="#3C414A" font-weight="500" text-anchor="end" letter-spacing="1">0 — 7</text><line x1="96" y1="312" x2="596" y2="312" stroke="#202227" stroke-width="1" stroke-linecap="butt"/><line x1="824" y1="312" x2="1344" y2="312" stroke="#202227" stroke-width="1" stroke-linecap="butt"/><g id="mapping_links"><path d="M 600.0 378.0 C 711.5 378.0 711.5 357.0 823.0 357.0" fill="none" stroke="#EA7600" stroke-width="1.5" opacity="0.92" stroke-linecap="round"/><path d="M 600.0 378.0 C 711.5 378.0 711.5 608.0 823.0 608.0" fill="none" stroke="#3A3F47" stroke-width="1" opacity="0.5" stroke-linecap="round"/><path d="M 600.0 470.0 C 711.5 470.0 711.5 357.0 823.0 357.0" fill="none" stroke="#EA7600" stroke-width="1.5" opacity="0.92" stroke-linecap="round"/><path d="M 600.0 470.0 C 711.5 470.0 711.5 440.7 823.0 440.7" fill="none" stroke="#3A3F47" stroke-width="1" opacity="0.5" stroke-linecap="round"/><path d="M 600.0 562.0 C 711.5 562.0 711.5 524.3 823.0 524.3" fill="none" stroke="#EA7600" stroke-width="1.5" opacity="0.92" stroke-linecap="round"/><path d="M 600.0 562.0 C 711.5 562.0 711.5 775.3 823.0 775.3" fill="none" stroke="#3A3F47" stroke-width="1" opacity="0.5" stroke-linecap="round"/><path d="M 600.0 654.0 C 711.5 654.0 711.5 440.7 823.0 440.7" fill="none" stroke="#EA7600" stroke-width="1.5" opacity="0.92" stroke-linecap="round"/><path d="M 600.0 654.0 C 711.5 654.0 711.5 524.3 823.0 524.3" fill="none" stroke="#3A3F47" stroke-width="1" opacity="0.5" stroke-linecap="round"/><path d="M 600.0 746.0 C 711.5 746.0 711.5 608.0 823.0 608.0" fill="none" stroke="#EA7600" stroke-width="1.5" opacity="0.92" stroke-linecap="round"/><path d="M 600.0 746.0 C 711.5 746.0 711.5 691.7 823.0 691.7" fill="none" stroke="#EA7600" stroke-width="1.5" opacity="0.92" stroke-linecap="round"/><path d="M 600.0 838.0 C 711.5 838.0 711.5 691.7 823.0 691.7" fill="none" stroke="#3A3F47" stroke-width="1" opacity="0.5" stroke-linecap="round"/><path d="M 600.0 838.0 C 711.5 838.0 711.5 859.0 823.0 859.0" fill="none" stroke="#EA7600" stroke-width="1.5" opacity="0.92" stroke-linecap="round"/></g><g id="mapping_dots"><circle cx="600" cy="378.0" r="2.6" fill="#050505" stroke="#90959C" stroke-width="1.2"/><circle cx="600" cy="470.0" r="2.6" fill="#050505" stroke="#90959C" stroke-width="1.2"/><circle cx="600" cy="562.0" r="2.6" fill="#050505" stroke="#90959C" stroke-width="1.2"/><circle cx="600" cy="654.0" r="2.6" fill="#050505" stroke="#90959C" stroke-width="1.2"/><circle cx="600" cy="746.0" r="2.6" fill="#050505" stroke="#90959C" stroke-width="1.2"/><circle cx="600" cy="838.0" r="2.6" fill="#050505" stroke="#90959C" stroke-width="1.2"/><circle cx="823" cy="357.0" r="2.6" fill="#050505" stroke="#90959C" stroke-width="1.2"/><circle cx="823" cy="440.66666666666663" r="2.6" fill="#050505" stroke="#90959C" stroke-width="1.2"/><circle cx="823" cy="524.3333333333333" r="2.6" fill="#050505" stroke="#90959C" stroke-width="1.2"/><circle cx="823" cy="608.0" r="2.6" fill="#050505" stroke="#90959C" stroke-width="1.2"/><circle cx="823" cy="691.6666666666666" r="2.6" fill="#050505" stroke="#90959C" stroke-width="1.2"/><circle cx="823" cy="775.3333333333333" r="2.6" fill="#050505" stroke="#90959C" stroke-width="1.2"/><circle cx="823" cy="859.0" r="2.6" fill="#050505" stroke="#90959C" stroke-width="1.2"/></g><g id="principle_01"><text x="96" y="385.0" font-family="Newsreader, 'Times New Roman', Georgia, serif" font-size="23" fill="#3C414A" font-weight="500">01</text><g id="ic_anchor" fill="none" stroke="#CBC7BE" stroke-width="1.5" stroke-linecap="round" stroke-linejoin="round" opacity="1.0"><circle cx="156" cy="376.0" r="7.2"/><circle cx="156" cy="376.0" r="2.1"/><line x1="143" y1="376.0" x2="148.8" y2="376.0"/><line x1="163.2" y1="376.0" x2="169" y2="376.0"/><line x1="156" y1="363.0" x2="156" y2="368.9"/><line x1="156" y1="383.1" x2="156" y2="389.0"/></g><text x="188" y="372.0" font-family="Newsreader, 'Times New Roman', Georgia, serif" font-size="17" fill="#F4F1E9" font-weight="500">Anchor the user</text><text x="188" y="391.0" font-family="Archivo, 'Helvetica Neue', Arial, sans-serif" font-size="10.5" fill="#90959C"><tspan x="188" dy="0">Always show where you are in the scene and the view.</tspan></text><text x="596" y="385.0" font-family="'IBM Plex Mono', 'SFMono-Regular', Menlo, monospace" font-size="9.5" fill="#C26100" font-weight="500" text-anchor="end" letter-spacing="0.5">R01 · R04</text></g><line x1="96" y1="424.0" x2="596" y2="424.0" stroke="#161719" stroke-width="1" stroke-linecap="butt"/><g id="principle_02"><text x="96" y="477.0" font-family="Newsreader, 'Times New Roman', Georgia, serif" font-size="23" fill="#3C414A" font-weight="500">02</text><g id="ic_state" fill="none" stroke="#CBC7BE" stroke-width="1.5" stroke-linecap="round" stroke-linejoin="round" opacity="1.0"><path d="M 143 468.0 Q 156 456.3 169 468.0 Q 156 479.7 143 468.0 Z"/><circle cx="156" cy="468.0" r="3.6"/></g><text x="188" y="464.0" font-family="Newsreader, 'Times New Roman', Georgia, serif" font-size="17" fill="#F4F1E9" font-weight="500">Reveal current state</text><text x="188" y="483.0" font-family="Archivo, 'Helvetica Neue', Arial, sans-serif" font-size="10.5" fill="#90959C"><tspan x="188" dy="0">Make mode, selection, and context continuously visible.</tspan></text><text x="596" y="477.0" font-family="'IBM Plex Mono', 'SFMono-Regular', Menlo, monospace" font-size="9.5" fill="#C26100" font-weight="500" text-anchor="end" letter-spacing="0.5">R01 · R02</text></g><line x1="96" y1="516.0" x2="596" y2="516.0" stroke="#161719" stroke-width="1" stroke-linecap="butt"/><g id="principle_03"><text x="96" y="569.0" font-family="Newsreader, 'Times New Roman', Georgia, serif" font-size="23" fill="#3C414A" font-weight="500">03</text><g id="ic_layers" fill="none" stroke="#CBC7BE" stroke-width="1.5" stroke-linecap="round" stroke-linejoin="round" opacity="1.0"><path d="M 156 552.2 L 169 556.5 L 156 560.8 L 143 556.5 Z"/><path d="M 143 560.4 L 156 565.1 L 169 560.4"/></g><text x="188" y="556.0" font-family="Newsreader, 'Times New Roman', Georgia, serif" font-size="17" fill="#F4F1E9" font-weight="500">Reduce visible noise</text><text x="188" y="575.0" font-family="Archivo, 'Helvetica Neue', Arial, sans-serif" font-size="10.5" fill="#90959C"><tspan x="188" dy="0">Show only what the current task needs; defer the rest.</tspan></text><text x="596" y="569.0" font-family="'IBM Plex Mono', 'SFMono-Regular', Menlo, monospace" font-size="9.5" fill="#C26100" font-weight="500" text-anchor="end" letter-spacing="0.5">R03 · R06</text></g><line x1="96" y1="608.0" x2="596" y2="608.0" stroke="#161719" stroke-width="1" stroke-linecap="butt"/><g id="principle_04"><text x="96" y="661.0" font-family="Newsreader, 'Times New Roman', Georgia, serif" font-size="23" fill="#3C414A" font-weight="500">04</text><g id="ic_play" fill="none" stroke="#CBC7BE" stroke-width="1.5" stroke-linecap="round" stroke-linejoin="round" opacity="1.0"><circle cx="156" cy="652.0" r="11.0"/><path d="M 152.4 646.5 L 161.8 652.0 L 152.4 657.5 Z" fill="#CBC7BE" stroke="none"/></g><text x="188" y="648.0" font-family="Newsreader, 'Times New Roman', Georgia, serif" font-size="17" fill="#F4F1E9" font-weight="500">Teach through doing</text><text x="188" y="667.0" font-family="Archivo, 'Helvetica Neue', Arial, sans-serif" font-size="10.5" fill="#90959C"><tspan x="188" dy="0">Explain tools in place, at the moment they are used.</tspan></text><text x="596" y="661.0" font-family="'IBM Plex Mono', 'SFMono-Regular', Menlo, monospace" font-size="9.5" fill="#C26100" font-weight="500" text-anchor="end" letter-spacing="0.5">R02 · R03</text></g><line x1="96" y1="700.0" x2="596" y2="700.0" stroke="#161719" stroke-width="1" stroke-linecap="butt"/><g id="principle_05"><text x="96" y="753.0" font-family="Newsreader, 'Times New Roman', Georgia, serif" font-size="23" fill="#3C414A" font-weight="500">05</text><g id="ic_recover" fill="none" stroke="#CBC7BE" stroke-width="1.5" stroke-linecap="round" stroke-linejoin="round" opacity="1.0"><path d="M 164.1 744.0 A 8.1 8.1 0 1 1 156.0 735.9"/><path d="M 156.0 730.9 L 156.0 740.9 L 149.0 735.9 Z" fill="#CBC7BE" stroke="none"/></g><text x="188" y="740.0" font-family="Newsreader, 'Times New Roman', Georgia, serif" font-size="17" fill="#F4F1E9" font-weight="500">Keep recovery visible</text><text x="188" y="759.0" font-family="Archivo, 'Helvetica Neue', Arial, sans-serif" font-size="10.5" fill="#90959C"><tspan x="188" dy="0">A wrong move should never feel unrecoverable.</tspan></text><text x="596" y="753.0" font-family="'IBM Plex Mono', 'SFMono-Regular', Menlo, monospace" font-size="9.5" fill="#C26100" font-weight="500" text-anchor="end" letter-spacing="0.5">R04 · R05</text></g><line x1="96" y1="792.0" x2="596" y2="792.0" stroke="#161719" stroke-width="1" stroke-linecap="butt"/><g id="principle_06"><text x="96" y="845.0" font-family="Newsreader, 'Times New Roman', Georgia, serif" font-size="23" fill="#3C414A" font-weight="500">06</text><g id="ic_win" fill="none" stroke="#CBC7BE" stroke-width="1.5" stroke-linecap="round" stroke-linejoin="round" opacity="1.0"><path d="M 148.8 826.9 h 14.3 v 6.5 a 7.2 7.2 0 0 1 -14.3 0 Z"/><path d="M 148.8 829.5 h -4.5 a 3.9 3.9 0 0 0 4.5 5.9"/><path d="M 163.2 829.5 h 4.5 a 3.9 3.9 0 0 1 -4.5 5.9"/><line x1="156" y1="838.3" x2="156" y2="842.5"/><line x1="150.8" y1="845.1" x2="161.2" y2="845.1"/></g><text x="188" y="832.0" font-family="Newsreader, 'Times New Roman', Georgia, serif" font-size="17" fill="#F4F1E9" font-weight="500">Guarantee one early win</text><text x="188" y="851.0" font-family="Archivo, 'Helvetica Neue', Arial, sans-serif" font-size="10.5" fill="#90959C"><tspan x="188" dy="0">Engineer a finished object inside the first session.</tspan></text><text x="596" y="845.0" font-family="'IBM Plex Mono', 'SFMono-Regular', Menlo, monospace" font-size="9.5" fill="#C26100" font-weight="500" text-anchor="end" letter-spacing="0.5">R07 · R05</text></g><g id="req_R01"><rect x="824" y="332.0" width="520" height="50" rx="7" fill="#1A140C" stroke="#C26100" stroke-width="1"/><line x1="824" y1="343.0" x2="824" y2="371.0" stroke="#EA7600" stroke-width="2" stroke-linecap="butt"/><text x="840" y="351.0" font-family="'IBM Plex Mono', 'SFMono-Regular', Menlo, monospace" font-size="10" fill="#EA7600" font-weight="500" letter-spacing="0.5">R01</text><text x="840" y="366.0" font-family="Archivo, 'Helvetica Neue', Arial, sans-serif" font-size="11.5" fill="#CBC7BE" font-weight="500"><tspan x="840" dy="0">Persistent mode &amp; status banner</tspan></text><g id="badge_p0"><rect x="1302" y="348.5" width="30" height="17" rx="8.5" fill="#EA7600"/><text x="1317.0" y="360.8" font-family="Archivo, 'Helvetica Neue', Arial, sans-serif" font-size="9.5" fill="#0A0A0A" font-weight="700" text-anchor="middle" letter-spacing="0.8">P0</text></g></g><g id="req_R02"><rect x="824" y="415.66666666666663" width="520" height="50" rx="7" fill="#1A140C" stroke="#C26100" stroke-width="1"/><line x1="824" y1="426.66666666666663" x2="824" y2="454.66666666666663" stroke="#EA7600" stroke-width="2" stroke-linecap="butt"/><text x="840" y="434.66666666666663" font-family="'IBM Plex Mono', 'SFMono-Regular', Menlo, monospace" font-size="10" fill="#EA7600" font-weight="500" letter-spacing="0.5">R02</text><text x="840" y="449.66666666666663" font-family="Archivo, 'Helvetica Neue', Arial, sans-serif" font-size="11.5" fill="#CBC7BE" font-weight="500"><tspan x="840" dy="0">Context-sensitive learning panel</tspan></text><g id="badge_p0"><rect x="1302" y="432.16666666666663" width="30" height="17" rx="8.5" fill="#EA7600"/><text x="1317.0" y="444.46666666666664" font-family="Archivo, 'Helvetica Neue', Arial, sans-serif" font-size="9.5" fill="#0A0A0A" font-weight="700" text-anchor="middle" letter-spacing="0.8">P0</text></g></g><g id="req_R03"><rect x="824" y="499.3333333333333" width="520" height="50" rx="7" fill="#121316" stroke="#2A2D33" stroke-width="1"/><line x1="824" y1="510.3333333333333" x2="824" y2="538.3333333333333" stroke="#D99D1B" stroke-width="2" stroke-linecap="butt"/><text x="840" y="518.3333333333333" font-family="'IBM Plex Mono', 'SFMono-Regular', Menlo, monospace" font-size="10" fill="#D99D1B" font-weight="500" letter-spacing="0.5">R03</text><text x="840" y="533.3333333333333" font-family="Archivo, 'Helvetica Neue', Arial, sans-serif" font-size="11.5" fill="#CBC7BE" font-weight="500"><tspan x="840" dy="0">Short guided task path</tspan></text><g id="badge_p1"><rect x="1302" y="515.8333333333333" width="30" height="17" rx="8.5" fill="#16181C" stroke="#2A2D33" stroke-width="1"/><text x="1317.0" y="528.1333333333332" font-family="Archivo, 'Helvetica Neue', Arial, sans-serif" font-size="9.5" fill="#F4F1E9" font-weight="700" text-anchor="middle" letter-spacing="0.8">P1</text></g></g><g id="req_R04"><rect x="824" y="583.0" width="520" height="50" rx="7" fill="#1A140C" stroke="#C26100" stroke-width="1"/><line x1="824" y1="594.0" x2="824" y2="622.0" stroke="#EA7600" stroke-width="2" stroke-linecap="butt"/><text x="840" y="602.0" font-family="'IBM Plex Mono', 'SFMono-Regular', Menlo, monospace" font-size="10" fill="#EA7600" font-weight="500" letter-spacing="0.5">R04</text><text x="840" y="617.0" font-family="Archivo, 'Helvetica Neue', Arial, sans-serif" font-size="11.5" fill="#CBC7BE" font-weight="500"><tspan x="840" dy="0">One-click recenter &amp; recover</tspan></text><g id="badge_p0"><rect x="1302" y="599.5" width="30" height="17" rx="8.5" fill="#EA7600"/><text x="1317.0" y="611.8" font-family="Archivo, 'Helvetica Neue', Arial, sans-serif" font-size="9.5" fill="#0A0A0A" font-weight="700" text-anchor="middle" letter-spacing="0.8">P0</text></g></g><g id="req_R05"><rect x="824" y="666.6666666666666" width="520" height="50" rx="7" fill="#121316" stroke="#2A2D33" stroke-width="1"/><line x1="824" y1="677.6666666666666" x2="824" y2="705.6666666666666" stroke="#D99D1B" stroke-width="2" stroke-linecap="butt"/><text x="840" y="685.6666666666666" font-family="'IBM Plex Mono', 'SFMono-Regular', Menlo, monospace" font-size="10" fill="#D99D1B" font-weight="500" letter-spacing="0.5">R05</text><text x="840" y="700.6666666666666" font-family="Archivo, 'Helvetica Neue', Arial, sans-serif" font-size="11.5" fill="#CBC7BE" font-weight="500"><tspan x="840" dy="0">Staged checkpoints</tspan></text><g id="badge_p1"><rect x="1302" y="683.1666666666666" width="30" height="17" rx="8.5" fill="#16181C" stroke="#2A2D33" stroke-width="1"/><text x="1317.0" y="695.4666666666666" font-family="Archivo, 'Helvetica Neue', Arial, sans-serif" font-size="9.5" fill="#F4F1E9" font-weight="700" text-anchor="middle" letter-spacing="0.8">P1</text></g></g><g id="req_R06"><rect x="824" y="750.3333333333333" width="520" height="50" rx="7" fill="#121316" stroke="#2A2D33" stroke-width="1"/><line x1="824" y1="761.3333333333333" x2="824" y2="789.3333333333333" stroke="#D99D1B" stroke-width="2" stroke-linecap="butt"/><text x="840" y="769.3333333333333" font-family="'IBM Plex Mono', 'SFMono-Regular', Menlo, monospace" font-size="10" fill="#D99D1B" font-weight="500" letter-spacing="0.5">R06</text><text x="840" y="784.3333333333333" font-family="Archivo, 'Helvetica Neue', Arial, sans-serif" font-size="11.5" fill="#CBC7BE" font-weight="500"><tspan x="840" dy="0">Persistent shortcut / reference</tspan></text><g id="badge_p1"><rect x="1302" y="766.8333333333333" width="30" height="17" rx="8.5" fill="#16181C" stroke="#2A2D33" stroke-width="1"/><text x="1317.0" y="779.1333333333332" font-family="Archivo, 'Helvetica Neue', Arial, sans-serif" font-size="9.5" fill="#F4F1E9" font-weight="700" text-anchor="middle" letter-spacing="0.8">P1</text></g></g><g id="req_R07"><rect x="824" y="834.0" width="520" height="50" rx="7" fill="#121316" stroke="#2A2D33" stroke-width="1"/><line x1="824" y1="845.0" x2="824" y2="873.0" stroke="#D99D1B" stroke-width="2" stroke-linecap="butt"/><text x="840" y="853.0" font-family="'IBM Plex Mono', 'SFMono-Regular', Menlo, monospace" font-size="10" fill="#D99D1B" font-weight="500" letter-spacing="0.5">R07</text><text x="840" y="868.0" font-family="Archivo, 'Helvetica Neue', Arial, sans-serif" font-size="11.5" fill="#CBC7BE" font-weight="500"><tspan x="840" dy="0">Downloadable reference sheet</tspan></text><g id="badge_p1"><rect x="1302" y="850.5" width="30" height="17" rx="8.5" fill="#16181C" stroke="#2A2D33" stroke-width="1"/><text x="1317.0" y="862.8" font-family="Archivo, 'Helvetica Neue', Arial, sans-serif" font-size="9.5" fill="#F4F1E9" font-weight="700" text-anchor="middle" letter-spacing="0.8">P1</text></g></g><line x1="96" y1="916" x2="1344" y2="916" stroke="#202227" stroke-width="1" stroke-linecap="butt"/><text x="96" y="898" font-family="Archivo, 'Helvetica Neue', Arial, sans-serif" font-size="10.5" fill="#EA7600" font-weight="700" letter-spacing="3">TRACEABILITY</text><text x="272" y="898" font-family="Archivo, 'Helvetica Neue', Arial, sans-serif" font-size="12.5" fill="#90959C" font-weight="400">Six principles → seven requirements → one coherent first-hour system. Nothing in the build exists without a reason traceable to observed behaviour.</text></g>
</svg>
