<?xml version="1.0" encoding="UTF-8"?>
<svg width="1440" height="1024" viewBox="0 0 1440 1024" fill="none" xmlns="http://www.w3.org/2000/svg" xmlns:xlink="http://www.w3.org/1999/xlink">
<rect width="1440" height="1024" fill="#050505"/>
<g id="slide_04_solution_system"><g id="chrome"><text x="96" y="60" font-family="Archivo, 'Helvetica Neue', Arial, sans-serif" font-size="12.5" fill="#F4F1E9" font-weight="700" letter-spacing="3.2">THE FIRST HOUR</text><text x="96" y="76" font-family="Archivo, 'Helvetica Neue', Arial, sans-serif" font-size="10" fill="#666B73" font-weight="600" letter-spacing="3.2">MAKING BLENDER LEGIBLE</text><text x="1344" y="60" font-family="Archivo, 'Helvetica Neue', Arial, sans-serif" font-size="12.5" fill="#90959C" font-weight="600" text-anchor="end" letter-spacing="2.6">04 / SOLUTION SYSTEM</text><text x="1344" y="76" font-family="'IBM Plex Mono', 'SFMono-Regular', Menlo, monospace" font-size="10" fill="#EA7600" font-weight="500" text-anchor="end" letter-spacing="1">04 — 07</text><line x1="96" y1="84" x2="1344" y2="84" stroke="#202227" stroke-width="1" stroke-linecap="butt"/><line x1="96" y1="960" x2="1344" y2="960" stroke="#202227" stroke-width="1" stroke-linecap="butt"/><text x="96" y="980" font-family="Archivo, 'Helvetica Neue', Arial, sans-serif" font-size="10" fill="#666B73" font-weight="600" letter-spacing="2.6">ALEXANDRA SUGATAN</text><text x="264" y="980" font-family="Archivo, 'Helvetica Neue', Arial, sans-serif" font-size="10" fill="#3C414A" font-weight="600" letter-spacing="2.6">UX / UI RESEARCH · PRODUCT DESIGN</text><text x="1344" y="980" font-family="'IBM Plex Mono', 'SFMono-Regular', Menlo, monospace" font-size="10" fill="#3C414A" font-weight="400" text-anchor="end" letter-spacing="1">COGS 127 · THE FIRST HOUR</text></g><text x="96" y="150" font-family="Archivo, 'Helvetica Neue', Arial, sans-serif" font-size="11" fill="#EA7600" font-weight="700" letter-spacing="3">THE SYSTEM  ·  ONE LEGIBLE FIRST HOUR</text><text x="96" y="200" font-family="Newsreader, 'Times New Roman', Georgia, serif" font-size="33" fill="#F4F1E9" font-weight="500">Three always-on overlays make the first hour readable.</text><g id="app_window"><rect x="250" y="256" width="940" height="474" rx="12" fill="#0A0A0B" stroke="#2A2D33" stroke-width="1.2"/><rect x="250" y="256" width="940" height="28" rx="12" fill="#0E0F11"/><rect x="250" y="272" width="940" height="12" fill="#0E0F11"/><circle cx="268" cy="270" r="4" fill="#3A3D43"/><circle cx="284" cy="270" r="4" fill="#3A3D43"/><circle cx="300" cy="270" r="4" fill="#3A3D43"/><text x="720.0" y="274" font-family="'IBM Plex Mono', 'SFMono-Regular', Menlo, monospace" font-size="9.5" fill="#666B73" text-anchor="middle" letter-spacing="0.5">Blender — first-hour.blend</text></g><g id="viewport"><rect x="400" y="330" width="540" height="374" fill="#070708"/><g id="vp_floor" opacity="0.5"><line x1="211.0" y1="710" x2="578.2" y2="350" stroke="#3B4654" stroke-width="1" stroke-linecap="butt"/><line x1="287.5" y1="710" x2="593.5" y2="350" stroke="#3B4654" stroke-width="1" stroke-linecap="butt"/><line x1="364.0" y1="710" x2="608.8000000000001" y2="350" stroke="#3B4654" stroke-width="1" stroke-linecap="butt"/><line x1="440.5" y1="710" x2="624.1" y2="350" stroke="#3B4654" stroke-width="1" stroke-linecap="butt"/><line x1="517.0" y1="710" x2="639.4000000000001" y2="350" stroke="#3B4654" stroke-width="1" stroke-linecap="butt"/><line x1="593.5" y1="710" x2="654.7" y2="350" stroke="#3B4654" stroke-width="1" stroke-linecap="butt"/><line x1="670.0" y1="710" x2="670.0" y2="350" stroke="#3B4654" stroke-width="1" stroke-linecap="butt"/><line x1="746.5" y1="710" x2="685.3000000000001" y2="350" stroke="#3B4654" stroke-width="1" stroke-linecap="butt"/><line x1="823.0" y1="710" x2="700.6" y2="350" stroke="#3B4654" stroke-width="1" stroke-linecap="butt"/><line x1="899.5" y1="710" x2="715.9000000000001" y2="350" stroke="#3B4654" stroke-width="1" stroke-linecap="butt"/><line x1="976.0" y1="710" x2="731.2" y2="350" stroke="#3B4654" stroke-width="1" stroke-linecap="butt"/><line x1="1052.5" y1="710" x2="746.5" y2="350" stroke="#3B4654" stroke-width="1" stroke-linecap="butt"/><line x1="1129.0" y1="710" x2="761.8000000000001" y2="350" stroke="#3B4654" stroke-width="1" stroke-linecap="butt"/><line x1="211.0" y1="710.0" x2="1129.0" y2="710.0" stroke="#3B4654" stroke-width="1" stroke-linecap="butt"/><line x1="263.45714285714286" y1="658.5714285714286" x2="1076.5428571428572" y2="658.5714285714286" stroke="#3B4654" stroke-width="1" stroke-linecap="butt"/><line x1="315.91428571428565" y1="607.1428571428571" x2="1024.0857142857144" y2="607.1428571428571" stroke="#3B4654" stroke-width="1" stroke-linecap="butt"/><line x1="368.37142857142857" y1="555.7142857142858" x2="971.6285714285714" y2="555.7142857142858" stroke="#3B4654" stroke-width="1" stroke-linecap="butt"/><line x1="420.8285714285714" y1="504.28571428571433" x2="919.1714285714286" y2="504.28571428571433" stroke="#3B4654" stroke-width="1" stroke-linecap="butt"/><line x1="473.2857142857143" y1="452.85714285714283" x2="866.7142857142858" y2="452.85714285714283" stroke="#3B4654" stroke-width="1" stroke-linecap="butt"/><line x1="525.7428571428571" y1="401.42857142857144" x2="814.2571428571429" y2="401.42857142857144" stroke="#3B4654" stroke-width="1" stroke-linecap="butt"/><line x1="578.2" y1="350.0" x2="761.8" y2="350.0" stroke="#3B4654" stroke-width="1" stroke-linecap="butt"/></g><g id="vp_mug" opacity="0.95"><ellipse cx="670.0" cy="483.0" rx="52" ry="15.6" fill="none" stroke="#6C8DAF" stroke-width="1.4"/><ellipse cx="670.0" cy="579.0" rx="52" ry="15.6" fill="none" stroke="#6C8DAF" stroke-width="1.4" opacity="0.55"/><ellipse cx="670.0" cy="507.0" rx="52" ry="15.6" fill="none" stroke="#6C8DAF" stroke-width="1.4" opacity="0.32"/><ellipse cx="670.0" cy="531.0" rx="52" ry="15.6" fill="none" stroke="#6C8DAF" stroke-width="1.4" opacity="0.32"/><ellipse cx="670.0" cy="555.0" rx="52" ry="15.6" fill="none" stroke="#6C8DAF" stroke-width="1.4" opacity="0.32"/><line x1="722.0" y1="483.0" x2="722.0" y2="579.0" stroke="#6C8DAF" stroke-width="1.4" stroke-linecap="butt" opacity="0.5"/><line x1="715.0333209967908" y1="490.8" x2="715.0333209967908" y2="586.8" stroke="#6C8DAF" stroke-width="1.4" stroke-linecap="butt" opacity="0.5"/><line x1="696.0" y1="496.50999629903725" x2="696.0" y2="592.5099962990372" stroke="#6C8DAF" stroke-width="1.4" stroke-linecap="butt" opacity="0.5"/><line x1="670.0" y1="498.6" x2="670.0" y2="594.6" stroke="#6C8DAF" stroke-width="1.4" stroke-linecap="butt" opacity="0.5"/><line x1="644.0" y1="496.50999629903725" x2="644.0" y2="592.5099962990372" stroke="#6C8DAF" stroke-width="1.4" stroke-linecap="butt" opacity="0.5"/><line x1="624.9666790032092" y1="490.8" x2="624.9666790032092" y2="586.8" stroke="#6C8DAF" stroke-width="1.4" stroke-linecap="butt" opacity="0.5"/><line x1="618.0" y1="483.0" x2="618.0" y2="579.0" stroke="#6C8DAF" stroke-width="1.4" stroke-linecap="butt" opacity="0.5"/><line x1="624.9666790032092" y1="475.2" x2="624.9666790032092" y2="571.2" stroke="#6C8DAF" stroke-width="1.4" stroke-linecap="butt" opacity="0.5"/><line x1="644.0" y1="469.49000370096275" x2="644.0" y2="565.4900037009628" stroke="#6C8DAF" stroke-width="1.4" stroke-linecap="butt" opacity="0.5"/><line x1="670.0" y1="467.4" x2="670.0" y2="563.4" stroke="#6C8DAF" stroke-width="1.4" stroke-linecap="butt" opacity="0.5"/><line x1="696.0" y1="469.49000370096275" x2="696.0" y2="565.4900037009628" stroke="#6C8DAF" stroke-width="1.4" stroke-linecap="butt" opacity="0.5"/><line x1="715.0333209967907" y1="475.2" x2="715.0333209967907" y2="571.2" stroke="#6C8DAF" stroke-width="1.4" stroke-linecap="butt" opacity="0.5"/><line x1="618.0" y1="483.0" x2="618.0" y2="579.0" stroke="#6C8DAF" stroke-width="1.4" stroke-linecap="butt"/><line x1="722.0" y1="483.0" x2="722.0" y2="579.0" stroke="#6C8DAF" stroke-width="1.4" stroke-linecap="butt"/><path d="M 718.0 505.0 C 780.0 501.0, 780.0 561.0, 718.0 557.0" fill="none" stroke="#6C8DAF" stroke-width="1.4"/></g><g id="gizmo"><line x1="906" y1="364" x2="926" y2="364" stroke="#8D5A60" stroke-width="1.6" stroke-linecap="round"/><circle cx="926" cy="364" r="4.4" fill="#8D5A60"/><text x="926" y="366.6" font-family="Archivo, 'Helvetica Neue', Arial, sans-serif" font-size="6" fill="#0A0A0A" font-weight="700" text-anchor="middle">X</text><line x1="906" y1="364" x2="895.0" y2="350.0" stroke="#5E8C4A" stroke-width="1.6" stroke-linecap="round"/><circle cx="895.0" cy="350.0" r="4.4" fill="#5E8C4A"/><text x="895.0" y="352.6" font-family="Archivo, 'Helvetica Neue', Arial, sans-serif" font-size="6" fill="#0A0A0A" font-weight="700" text-anchor="middle">Y</text><line x1="906" y1="364" x2="906" y2="344" stroke="#5B87B6" stroke-width="1.6" stroke-linecap="round"/><circle cx="906" cy="344" r="4.4" fill="#5B87B6"/><text x="906" y="346.6" font-family="Archivo, 'Helvetica Neue', Arial, sans-serif" font-size="6" fill="#0A0A0A" font-weight="700" text-anchor="middle">Z</text></g><text x="414" y="690" font-family="'IBM Plex Mono', 'SFMono-Regular', Menlo, monospace" font-size="8.5" fill="#666B73" letter-spacing="0.5">User Perspective</text></g><g id="overlay_banner"><rect x="250" y="284" width="940" height="46" fill="#111317"/><line x1="250" y1="330" x2="1190" y2="330" stroke="#EA7600" stroke-width="1.4" stroke-linecap="butt" opacity="0.85"/><rect x="266" y="294.0" width="104" height="26" rx="5" fill="#EA7600" stroke="none" stroke-width="1"/><text x="318.0" y="310.4" font-family="Archivo, 'Helvetica Neue', Arial, sans-serif" font-size="9.5" fill="#0A0A0A" font-weight="700" text-anchor="middle" letter-spacing="1.2">OBJECT MODE</text><rect x="376" y="294.0" width="92" height="26" rx="5" fill="#15171B" stroke="#2A2D33" stroke-width="1"/><text x="422.0" y="310.4" font-family="Archivo, 'Helvetica Neue', Arial, sans-serif" font-size="9.5" fill="#CBC7BE" font-weight="700" text-anchor="middle" letter-spacing="1.2">EDIT MODE</text><rect x="474" y="294.0" width="78" height="26" rx="5" fill="#15171B" stroke="#2A2D33" stroke-width="1"/><text x="513.0" y="310.4" font-family="Archivo, 'Helvetica Neue', Arial, sans-serif" font-size="9.5" fill="#CBC7BE" font-weight="700" text-anchor="middle" letter-spacing="1.2">SCULPT</text><text x="584" y="310.6" font-family="Archivo, 'Helvetica Neue', Arial, sans-serif" font-size="11" fill="#CBC7BE" font-weight="500">Scene</text><path d="M 632.0 303.0 L 636.0 307.0 L 632.0 311.0" fill="none" stroke="#666B73" stroke-width="1.4" stroke-linecap="round" stroke-linejoin="round"/><text x="646" y="310.6" font-family="Archivo, 'Helvetica Neue', Arial, sans-serif" font-size="11" fill="#CBC7BE" font-weight="500">Mug</text><path d="M 680.0 303.0 L 684.0 307.0 L 680.0 311.0" fill="none" stroke="#666B73" stroke-width="1.4" stroke-linecap="round" stroke-linejoin="round"/><text x="694" y="310.6" font-family="Archivo, 'Helvetica Neue', Arial, sans-serif" font-size="11" fill="#D99D1B" font-weight="600">You are here</text><g id="ic_compass" fill="none" stroke="#F4F1E9" stroke-width="1.5" stroke-linecap="round" stroke-linejoin="round" opacity="1.0"><circle cx="1074" cy="307.0" r="10.2"/><path d="M 1074 301.6 L 1077.4 307.0 L 1074 312.4 L 1070.6 307.0 Z"/><line x1="1074" y1="296.8" x2="1074" y2="294.4"/></g><text x="1092" y="310.6" font-family="'IBM Plex Mono', 'SFMono-Regular', Menlo, monospace" font-size="9" fill="#90959C" letter-spacing="0.5">FACING -Y</text></g><g id="overlay_recovery"><rect x="250" y="330" width="150" height="374" fill="#0D0E10"/><line x1="400" y1="330" x2="400" y2="704" stroke="#202227" stroke-width="1" stroke-linecap="butt"/><text x="266" y="356" font-family="Archivo, 'Helvetica Neue', Arial, sans-serif" font-size="9.5" fill="#EA7600" font-weight="700" letter-spacing="2">RECOVERY</text><rect x="264" y="378" width="122" height="52" rx="7" fill="#121316" stroke="#2A2D33" stroke-width="1"/><g id="ic_recover" fill="none" stroke="#CBC7BE" stroke-width="1.5" stroke-linecap="round" stroke-linejoin="round" opacity="1.0"><path d="M 288.8 404 A 6.8 6.8 0 1 1 282.0 397.2"/><path d="M 282.0 392.2 L 282.0 402.2 L 275.0 397.2 Z" fill="#CBC7BE" stroke="none"/></g><text x="300" y="400" font-family="Archivo, 'Helvetica Neue', Arial, sans-serif" font-size="10.5" fill="#F4F1E9" font-weight="600">Recenter view</text><text x="300" y="416" font-family="'IBM Plex Mono', 'SFMono-Regular', Menlo, monospace" font-size="8.5" fill="#666B73" letter-spacing="0.5">Shift C</text><rect x="264" y="442" width="122" height="52" rx="7" fill="#121316" stroke="#2A2D33" stroke-width="1"/><g id="ic_anchor" fill="none" stroke="#CBC7BE" stroke-width="1.5" stroke-linecap="round" stroke-linejoin="round" opacity="1.0"><circle cx="282" cy="468" r="6.1"/><circle cx="282" cy="468" r="1.8"/><line x1="271" y1="468" x2="275.9" y2="468"/><line x1="288.1" y1="468" x2="293" y2="468"/><line x1="282" y1="457" x2="282" y2="461.9"/><line x1="282" y1="474.1" x2="282" y2="479"/></g><text x="300" y="464" font-family="Archivo, 'Helvetica Neue', Arial, sans-serif" font-size="10.5" fill="#F4F1E9" font-weight="600">Undo last step</text><text x="300" y="480" font-family="'IBM Plex Mono', 'SFMono-Regular', Menlo, monospace" font-size="8.5" fill="#666B73" letter-spacing="0.5">Ctrl Z</text><rect x="264" y="506" width="122" height="52" rx="7" fill="#121316" stroke="#2A2D33" stroke-width="1"/><g id="ic_check" fill="none" stroke="#CBC7BE" stroke-width="1.5" stroke-linecap="round" stroke-linejoin="round" opacity="1.0"><circle cx="282" cy="532" r="9.3"/><path d="M 277.6 532 L 281.4 535.9 L 287.5 527.6"/></g><text x="300" y="528" font-family="Archivo, 'Helvetica Neue', Arial, sans-serif" font-size="10.5" fill="#F4F1E9" font-weight="600">Last checkpoint</text><text x="300" y="544" font-family="'IBM Plex Mono', 'SFMono-Regular', Menlo, monospace" font-size="8.5" fill="#666B73" letter-spacing="0.5">2 / 4</text></g><g id="overlay_learning"><rect x="940" y="330" width="250" height="374" fill="#0D0E10"/><line x1="940" y1="330" x2="940" y2="704" stroke="#202227" stroke-width="1" stroke-linecap="butt"/><text x="958" y="356" font-family="Archivo, 'Helvetica Neue', Arial, sans-serif" font-size="9.5" fill="#EA7600" font-weight="700" letter-spacing="2">ESSENTIAL</text><text x="1174" y="356" font-family="'IBM Plex Mono', 'SFMono-Regular', Menlo, monospace" font-size="9" fill="#90959C" text-anchor="end" letter-spacing="0.5">EXTRUDE  ·  E</text><text x="958" y="382" font-family="Archivo, 'Helvetica Neue', Arial, sans-serif" font-size="8.5" fill="#D99D1B" font-weight="700" letter-spacing="1.6">WHAT THIS DOES</text><text x="958" y="399" font-family="Newsreader, 'Times New Roman', Georgia, serif" font-size="11" fill="#CBC7BE"><tspan x="958" dy="0">Grows new geometry out of the face you</tspan><tspan x="958" dy="15">have selected.</tspan></text><text x="958" y="448" font-family="Archivo, 'Helvetica Neue', Arial, sans-serif" font-size="8.5" fill="#D99D1B" font-weight="700" letter-spacing="1.6">WHY IT MATTERS</text><text x="958" y="465" font-family="Newsreader, 'Times New Roman', Georgia, serif" font-size="11" fill="#CBC7BE"><tspan x="958" dy="0">It turns a flat base into the body of</tspan><tspan x="958" dy="15">the mug.</tspan></text><text x="958" y="514" font-family="Archivo, 'Helvetica Neue', Arial, sans-serif" font-size="8.5" fill="#D99D1B" font-weight="700" letter-spacing="1.6">TRY THIS NEXT</text><text x="958" y="531" font-family="Newsreader, 'Times New Roman', Georgia, serif" font-size="11" fill="#CBC7BE"><tspan x="958" dy="0">Select the top face, press E, and pull</tspan><tspan x="958" dy="15">upward.</tspan></text></g><g id="status_bar"><rect x="250" y="704" width="940" height="26" fill="#0E0F11"/><line x1="250" y1="704" x2="1190" y2="704" stroke="#202227" stroke-width="1" stroke-linecap="butt"/><text x="266" y="721" font-family="'IBM Plex Mono', 'SFMono-Regular', Menlo, monospace" font-size="8.5" fill="#666B73" letter-spacing="0.5">Verts 24   Faces 13   Mode Object</text><text x="1174" y="721" font-family="'IBM Plex Mono', 'SFMono-Regular', Menlo, monospace" font-size="8.5" fill="#666B73" text-anchor="end" letter-spacing="0.5">checkpoint saved · 00:11:42</text></g><g id="onum_1"><circle cx="260" cy="294" r="10" fill="#EA7600"/><text x="260" y="297.6" font-family="Archivo, 'Helvetica Neue', Arial, sans-serif" font-size="10.5" fill="#0A0A0A" font-weight="700" text-anchor="middle">1</text></g><g id="onum_2"><circle cx="1178" cy="342" r="10" fill="#EA7600"/><text x="1178" y="345.6" font-family="Archivo, 'Helvetica Neue', Arial, sans-serif" font-size="10.5" fill="#0A0A0A" font-weight="700" text-anchor="middle">2</text></g><g id="onum_3"><circle cx="388" cy="342" r="10" fill="#EA7600"/><text x="388" y="345.6" font-family="Archivo, 'Helvetica Neue', Arial, sans-serif" font-size="10.5" fill="#0A0A0A" font-weight="700" text-anchor="middle">3</text></g><g id="onum_1"><circle cx="258" cy="238" r="8" fill="#EA7600"/><text x="258" y="241.6" font-family="Archivo, 'Helvetica Neue', Arial, sans-serif" font-size="10.5" fill="#0A0A0A" font-weight="700" text-anchor="middle">1</text></g><text x="272" y="242" font-family="Archivo, 'Helvetica Neue', Arial, sans-serif" font-size="10.5" fill="#90959C" font-weight="500" letter-spacing="0.4">PERSISTENT MODE &amp; STATUS — current mode, scene path, and a compass that never disappears.</text><g id="cap_recovery"><g id="onum_3"><circle cx="104" cy="480" r="9" fill="#EA7600"/><text x="104" y="483.6" font-family="Archivo, 'Helvetica Neue', Arial, sans-serif" font-size="10.5" fill="#0A0A0A" font-weight="700" text-anchor="middle">3</text></g><text x="96" y="508" font-family="Archivo, 'Helvetica Neue', Arial, sans-serif" font-size="9.5" fill="#F4F1E9" font-weight="700" letter-spacing="1.4">RECOVERY RAIL</text><text x="96" y="526" font-family="Archivo, 'Helvetica Neue', Arial, sans-serif" font-size="10.5" fill="#90959C"><tspan x="96" dy="0">One move back to safe —</tspan><tspan x="96" dy="14.5">recenter, undo, or jump</tspan><tspan x="96" dy="14.5">to the last checkpoint.</tspan></text></g><g id="cap_learning"><g id="onum_2"><circle cx="1214" cy="480" r="9" fill="#EA7600"/><text x="1214" y="483.6" font-family="Archivo, 'Helvetica Neue', Arial, sans-serif" font-size="10.5" fill="#0A0A0A" font-weight="700" text-anchor="middle">2</text></g><text x="1206" y="508" font-family="Archivo, 'Helvetica Neue', Arial, sans-serif" font-size="9.5" fill="#F4F1E9" font-weight="700" letter-spacing="1.4">LEARNING PANEL</text><text x="1206" y="526" font-family="Archivo, 'Helvetica Neue', Arial, sans-serif" font-size="10.5" fill="#90959C"><tspan x="1206" dy="0">What a tool does, why it</tspan><tspan x="1206" dy="14.5">matters, and what to try</tspan><tspan x="1206" dy="14.5">next — explained in</tspan><tspan x="1206" dy="14.5">place.</tspan></text></g><g id="objective_strip"><rect x="96" y="766" width="1248" height="130" rx="10" fill="#08090A" stroke="#202227" stroke-width="1"/><rect x="96" y="766" width="4" height="130" rx="2" fill="#EA7600"/><text x="124" y="796" font-family="Archivo, 'Helvetica Neue', Arial, sans-serif" font-size="10" fill="#EA7600" font-weight="700" letter-spacing="2.4">FIRST-SESSION OBJECTIVE</text><text x="124" y="832" font-family="Newsreader, 'Times New Roman', Georgia, serif" font-size="25" fill="#F4F1E9" font-weight="500">Model one real object — a mug.</text><text x="124" y="858" font-family="Archivo, 'Helvetica Neue', Arial, sans-serif" font-size="11.5" fill="#90959C"><tspan x="124" dy="0">Finish one complete making loop before the toolset is ever allowed to widen. Confidence first,</tspan><tspan x="124" dy="16">capability after.</tspan></text><text x="708" y="788" font-family="Archivo, 'Helvetica Neue', Arial, sans-serif" font-size="8.5" fill="#5E8C4A" font-weight="700" letter-spacing="1.8">IN SCOPE</text><rect x="708" y="794" width="139.6" height="30" rx="15" fill="#0E1410" stroke="#5E8C4A" stroke-width="1"/><path d="M 719.0 809.0 L 723.0 812.5 L 729.0 805.0" fill="none" stroke="#5E8C4A" stroke-width="1.7" stroke-linecap="round" stroke-linejoin="round"/><text x="738" y="813.5" font-family="Archivo, 'Helvetica Neue', Arial, sans-serif" font-size="10.5" fill="#F4F1E9" font-weight="600">One finished mug</text><text x="708" y="830" font-family="Archivo, 'Helvetica Neue', Arial, sans-serif" font-size="8.5" fill="#666B73" font-weight="700" letter-spacing="1.8">DEFERRED</text><rect x="708" y="836" width="86.8" height="30" rx="15" fill="#121316" stroke="#2A2D33" stroke-width="1"/><path d="M 720.0 847.0 L 728.0 855.0 M 728.0 847.0 L 720.0 855.0" fill="none" stroke="#666B73" stroke-width="1.7" stroke-linecap="round"/><text x="738" y="855.5" font-family="Archivo, 'Helvetica Neue', Arial, sans-serif" font-size="10.5" fill="#90959C" font-weight="600">Lighting</text><rect x="804.8" y="836" width="80.19999999999999" height="30" rx="15" fill="#121316" stroke="#2A2D33" stroke-width="1"/><path d="M 816.8 847.0 L 824.8 855.0 M 824.8 847.0 L 816.8 855.0" fill="none" stroke="#666B73" stroke-width="1.7" stroke-linecap="round"/><text x="834.8" y="855.5" font-family="Archivo, 'Helvetica Neue', Arial, sans-serif" font-size="10.5" fill="#90959C" font-weight="600">Cameras</text><rect x="895.0" y="836" width="93.4" height="30" rx="15" fill="#121316" stroke="#2A2D33" stroke-width="1"/><path d="M 907.0 847.0 L 915.0 855.0 M 915.0 847.0 L 907.0 855.0" fill="none" stroke="#666B73" stroke-width="1.7" stroke-linecap="round"/><text x="925.0" y="855.5" font-family="Archivo, 'Helvetica Neue', Arial, sans-serif" font-size="10.5" fill="#90959C" font-weight="600">Rendering</text><rect x="998.4" y="836" width="93.4" height="30" rx="15" fill="#121316" stroke="#2A2D33" stroke-width="1"/><path d="M 1010.4 847.0 L 1018.4 855.0 M 1018.4 847.0 L 1010.4 855.0" fill="none" stroke="#666B73" stroke-width="1.7" stroke-linecap="round"/><text x="1028.4" y="855.5" font-family="Archivo, 'Helvetica Neue', Arial, sans-serif" font-size="10.5" fill="#90959C" font-weight="600">Materials</text></g></g>
</svg>
