<?xml version="1.0" encoding="UTF-8"?>
<svg width="1440" height="1024" viewBox="0 0 1440 1024" fill="none" xmlns="http://www.w3.org/2000/svg" xmlns:xlink="http://www.w3.org/1999/xlink">
<rect width="1440" height="1024" fill="#050505"/>
<g id="slide_05_interaction_flow"><g id="chrome"><text x="96" y="60" font-family="Archivo, 'Helvetica Neue', Arial, sans-serif" font-size="12.5" fill="#F4F1E9" font-weight="700" letter-spacing="3.2">THE FIRST HOUR</text><text x="96" y="76" font-family="Archivo, 'Helvetica Neue', Arial, sans-serif" font-size="10" fill="#666B73" font-weight="600" letter-spacing="3.2">MAKING BLENDER LEGIBLE</text><text x="1344" y="60" font-family="Archivo, 'Helvetica Neue', Arial, sans-serif" font-size="12.5" fill="#90959C" font-weight="600" text-anchor="end" letter-spacing="2.6">05 / KEY INTERACTION FLOW</text><text x="1344" y="76" font-family="'IBM Plex Mono', 'SFMono-Regular', Menlo, monospace" font-size="10" fill="#EA7600" font-weight="500" text-anchor="end" letter-spacing="1">05 — 07</text><line x1="96" y1="84" x2="1344" y2="84" stroke="#202227" stroke-width="1" stroke-linecap="butt"/><line x1="96" y1="960" x2="1344" y2="960" stroke="#202227" stroke-width="1" stroke-linecap="butt"/><text x="96" y="980" font-family="Archivo, 'Helvetica Neue', Arial, sans-serif" font-size="10" fill="#666B73" font-weight="600" letter-spacing="2.6">ALEXANDRA SUGATAN</text><text x="264" y="980" font-family="Archivo, 'Helvetica Neue', Arial, sans-serif" font-size="10" fill="#3C414A" font-weight="600" letter-spacing="2.6">UX / UI RESEARCH · PRODUCT DESIGN</text><text x="1344" y="980" font-family="'IBM Plex Mono', 'SFMono-Regular', Menlo, monospace" font-size="10" fill="#3C414A" font-weight="400" text-anchor="end" letter-spacing="1">COGS 127 · THE FIRST HOUR</text></g><text x="96" y="150" font-family="Archivo, 'Helvetica Neue', Arial, sans-serif" font-size="11" fill="#EA7600" font-weight="700" letter-spacing="3">THE FLOW  ·  OPEN TO FIRST OBJECT</text><text x="96" y="200" font-family="Newsreader, 'Times New Roman', Georgia, serif" font-size="31" fill="#F4F1E9" font-weight="500">One guided path from a blank screen to a finished object.</text><text x="96" y="238" font-family="Newsreader, 'Times New Roman', Georgia, serif" font-size="14" fill="#CBC7BE"><tspan x="96" dy="0">Nine steps, one branch. Whether a beginner is led or left to explore, the system keeps them oriented, recoverable, and moving toward a win.</tspan></text><g id="step_01"><rect x="96.0" y="288" width="230" height="250" rx="10" fill="#0A0A0B" stroke="#202227" stroke-width="1"/><text x="112.0" y="314" font-family="'IBM Plex Mono', 'SFMono-Regular', Menlo, monospace" font-size="9" fill="#EA7600" font-weight="500" letter-spacing="1">STEP 01</text><text x="310.0" y="314" font-family="'IBM Plex Mono', 'SFMono-Regular', Menlo, monospace" font-size="9" fill="#3C414A" font-weight="500" text-anchor="end">01</text><clipPath id="clip0"><rect x="112.0" y="326" width="198" height="100" rx="6"/></clipPath><g clip-path="url(#clip0)"><rect x="112.0" y="326" width="198" height="100" fill="#070708"/><path d="M 211.0 348 L 224.0 360 L 211.0 372 L 198.0 360 Z" fill="#EA7600" opacity="0.92"/><rect x="167.0" y="384" width="88" height="20" rx="5" fill="#15171B" stroke="#2A2D33" stroke-width="1"/><text x="211.0" y="397" font-family="Archivo, 'Helvetica Neue', Arial, sans-serif" font-size="8.5" fill="#CBC7BE" font-weight="700" text-anchor="middle" letter-spacing="1">+  NEW FILE</text></g><rect x="112.0" y="326" width="198" height="100" rx="6" fill="none" stroke="#202227" stroke-width="1"/><text x="112.0" y="450" font-family="Newsreader, 'Times New Roman', Georgia, serif" font-size="14.5" fill="#F4F1E9" font-weight="500">Open Blender</text><text x="112.0" y="470" font-family="Archivo, 'Helvetica Neue', Arial, sans-serif" font-size="10.5" fill="#90959C"><tspan x="112.0" dy="0">A new file, not an empty void.</tspan></text></g><g id="step_02"><rect x="350.5" y="288" width="230" height="250" rx="10" fill="#0A0A0B" stroke="#202227" stroke-width="1"/><text x="366.5" y="314" font-family="'IBM Plex Mono', 'SFMono-Regular', Menlo, monospace" font-size="9" fill="#EA7600" font-weight="500" letter-spacing="1">STEP 02</text><text x="564.5" y="314" font-family="'IBM Plex Mono', 'SFMono-Regular', Menlo, monospace" font-size="9" fill="#3C414A" font-weight="500" text-anchor="end">02</text><clipPath id="clip1"><rect x="366.5" y="326" width="198" height="100" rx="6"/></clipPath><g clip-path="url(#clip1)"><rect x="366.5" y="326" width="198" height="100" fill="#070708"/><rect x="390.5" y="344" width="150" height="64" rx="7" fill="#101216" stroke="#C26100" stroke-width="1"/><text x="404.5" y="366" font-family="Newsreader, 'Times New Roman', Georgia, serif" font-size="11" fill="#F4F1E9" font-weight="500">Your first hour</text><line x1="404.5" y1="376" x2="526.5" y2="376" stroke="#202227" stroke-width="1" stroke-linecap="butt"/><rect x="404.5" y="386" width="70" height="19" rx="5" fill="#EA7600"/><text x="439.5" y="398.5" font-family="Archivo, 'Helvetica Neue', Arial, sans-serif" font-size="8" fill="#0A0A0A" font-weight="700" text-anchor="middle" letter-spacing="1">START</text><rect x="482.5" y="386" width="64" height="19" rx="5" fill="none" stroke="#2A2D33" stroke-width="1"/><text x="514.5" y="398.5" font-family="Archivo, 'Helvetica Neue', Arial, sans-serif" font-size="8" fill="#90959C" font-weight="700" text-anchor="middle" letter-spacing="1">LATER</text></g><rect x="366.5" y="326" width="198" height="100" rx="6" fill="none" stroke="#202227" stroke-width="1"/><text x="366.5" y="450" font-family="Newsreader, 'Times New Roman', Georgia, serif" font-size="14.5" fill="#F4F1E9" font-weight="500">The first-hour prompt</text><text x="366.5" y="470" font-family="Archivo, 'Helvetica Neue', Arial, sans-serif" font-size="10.5" fill="#90959C"><tspan x="366.5" dy="0">A clear offer to begin, right away.</tspan></text></g><g id="step_03"><rect x="605.0" y="288" width="230" height="250" rx="10" fill="#0A0A0B" stroke="#202227" stroke-width="1"/><text x="621.0" y="314" font-family="'IBM Plex Mono', 'SFMono-Regular', Menlo, monospace" font-size="9" fill="#EA7600" font-weight="500" letter-spacing="1">STEP 03</text><text x="819.0" y="314" font-family="'IBM Plex Mono', 'SFMono-Regular', Menlo, monospace" font-size="9" fill="#3C414A" font-weight="500" text-anchor="end">03</text><clipPath id="clip2"><rect x="621.0" y="326" width="198" height="100" rx="6"/></clipPath><g clip-path="url(#clip2)"><rect x="621.0" y="326" width="198" height="100" fill="#070708"/><circle cx="651.0" cy="376.0" r="4" fill="#050505" stroke="#CBC7BE" stroke-width="1.4"/><line x1="655.0" y1="376.0" x2="741.0" y2="358.0" stroke="#D99D1B" stroke-width="1.4" stroke-linecap="round" opacity="1.0"/><path d="M 741.0 358.0 L 737.2 361.2 M 741.0 358.0 L 736.2 356.6" stroke="#D99D1B" stroke-width="1.4" stroke-linecap="round" fill="none" opacity="1.0"/><line x1="655.0" y1="376.0" x2="741.0" y2="396.0" stroke="#90959C" stroke-width="1.4" stroke-linecap="round" opacity="1.0"/><path d="M 741.0 396.0 L 736.2 397.3 M 741.0 396.0 L 737.3 392.7" stroke="#90959C" stroke-width="1.4" stroke-linecap="round" fill="none" opacity="1.0"/><rect x="745.0" y="347.0" width="64" height="22" rx="5" fill="#1A140C" stroke="#C26100" stroke-width="1"/><text x="777.0" y="361.4" font-family="Archivo, 'Helvetica Neue', Arial, sans-serif" font-size="8" fill="#EA7600" font-weight="700" text-anchor="middle" letter-spacing="1">GUIDED</text><rect x="745.0" y="385.0" width="64" height="22" rx="5" fill="#121316" stroke="#2A2D33" stroke-width="1"/><text x="777.0" y="399.4" font-family="Archivo, 'Helvetica Neue', Arial, sans-serif" font-size="8" fill="#90959C" font-weight="700" text-anchor="middle" letter-spacing="1">EXPLORE</text></g><rect x="621.0" y="326" width="198" height="100" rx="6" fill="none" stroke="#202227" stroke-width="1"/><text x="621.0" y="450" font-family="Newsreader, 'Times New Roman', Georgia, serif" font-size="14.5" fill="#F4F1E9" font-weight="500">Guided or explore</text><text x="621.0" y="470" font-family="Archivo, 'Helvetica Neue', Arial, sans-serif" font-size="10.5" fill="#90959C"><tspan x="621.0" dy="0">Same scaffolding either way.</tspan></text></g><g id="step_04"><rect x="859.5" y="288" width="230" height="250" rx="10" fill="#0A0A0B" stroke="#202227" stroke-width="1"/><text x="875.5" y="314" font-family="'IBM Plex Mono', 'SFMono-Regular', Menlo, monospace" font-size="9" fill="#EA7600" font-weight="500" letter-spacing="1">STEP 04</text><text x="1073.5" y="314" font-family="'IBM Plex Mono', 'SFMono-Regular', Menlo, monospace" font-size="9" fill="#3C414A" font-weight="500" text-anchor="end">04</text><clipPath id="clip3"><rect x="875.5" y="326" width="198" height="100" rx="6"/></clipPath><g clip-path="url(#clip3)"><rect x="875.5" y="326" width="198" height="100" fill="#070708"/><rect x="875.5" y="326" width="198" height="22" fill="#111317"/><line x1="875.5" y1="348" x2="1073.5" y2="348" stroke="#EA7600" stroke-width="1.3" stroke-linecap="butt" opacity="0.85"/><rect x="885.5" y="332" width="40" height="11" rx="3" fill="#EA7600"/><rect x="931.5" y="332" width="30" height="11" rx="3" fill="#15171B" stroke="#2A2D33" stroke-width="1"/><g id="ic_compass" fill="none" stroke="#F4F1E9" stroke-width="1.3" stroke-linecap="round" stroke-linejoin="round" opacity="1.0"><circle cx="1057.5" cy="337" r="6.0"/><path d="M 1057.5 333.9 L 1059.5 337 L 1057.5 340.1 L 1055.5 337 Z"/><line x1="1057.5" y1="331.1" x2="1057.5" y2="329.6"/></g><g id="mg" opacity="0.4"><line x1="806.2" y1="430" x2="937.474" y2="70" stroke="#3B4654" stroke-width="1" stroke-linecap="butt"/><line x1="848.2750000000001" y1="430" x2="946.7305" y2="70" stroke="#3B4654" stroke-width="1" stroke-linecap="butt"/><line x1="890.35" y1="430" x2="955.9870000000001" y2="70" stroke="#3B4654" stroke-width="1" stroke-linecap="butt"/><line x1="932.4250000000001" y1="430" x2="965.2435" y2="70" stroke="#3B4654" stroke-width="1" stroke-linecap="butt"/><line x1="974.5" y1="430" x2="974.5" y2="70" stroke="#3B4654" stroke-width="1" stroke-linecap="butt"/><line x1="1016.575" y1="430" x2="983.7565000000001" y2="70" stroke="#3B4654" stroke-width="1" stroke-linecap="butt"/><line x1="1058.65" y1="430" x2="993.013" y2="70" stroke="#3B4654" stroke-width="1" stroke-linecap="butt"/><line x1="1100.725" y1="430" x2="1002.2695" y2="70" stroke="#3B4654" stroke-width="1" stroke-linecap="butt"/><line x1="1142.8" y1="430" x2="1011.5260000000001" y2="70" stroke="#3B4654" stroke-width="1" stroke-linecap="butt"/><line x1="806.2" y1="430.0" x2="1142.8" y2="430.0" stroke="#3B4654" stroke-width="1" stroke-linecap="butt"/><line x1="832.4548" y1="358.0" x2="1116.5452" y2="358.0" stroke="#3B4654" stroke-width="1" stroke-linecap="butt"/><line x1="858.7096" y1="286.0" x2="1090.2904" y2="286.0" stroke="#3B4654" stroke-width="1" stroke-linecap="butt"/><line x1="884.9644000000001" y1="214.0" x2="1064.0356" y2="214.0" stroke="#3B4654" stroke-width="1" stroke-linecap="butt"/><line x1="911.2192" y1="142.0" x2="1037.7808" y2="142.0" stroke="#3B4654" stroke-width="1" stroke-linecap="butt"/><line x1="937.474" y1="70.0" x2="1011.526" y2="70.0" stroke="#3B4654" stroke-width="1" stroke-linecap="butt"/></g></g><rect x="875.5" y="326" width="198" height="100" rx="6" fill="none" stroke="#202227" stroke-width="1"/><text x="875.5" y="450" font-family="Newsreader, 'Times New Roman', Georgia, serif" font-size="14.5" fill="#F4F1E9" font-weight="500">Orientation overlay</text><text x="875.5" y="470" font-family="Archivo, 'Helvetica Neue', Arial, sans-serif" font-size="10.5" fill="#90959C"><tspan x="875.5" dy="0">Mode, place, and compass appear.</tspan></text></g><g id="step_05"><rect x="1114.0" y="288" width="230" height="250" rx="10" fill="#0A0A0B" stroke="#202227" stroke-width="1"/><text x="1130.0" y="314" font-family="'IBM Plex Mono', 'SFMono-Regular', Menlo, monospace" font-size="9" fill="#EA7600" font-weight="500" letter-spacing="1">STEP 05</text><text x="1328.0" y="314" font-family="'IBM Plex Mono', 'SFMono-Regular', Menlo, monospace" font-size="9" fill="#3C414A" font-weight="500" text-anchor="end">05</text><clipPath id="clip4"><rect x="1130.0" y="326" width="198" height="100" rx="6"/></clipPath><g clip-path="url(#clip4)"><rect x="1130.0" y="326" width="198" height="100" fill="#070708"/><g id="mg" opacity="0.4"><line x1="1060.7" y1="430" x2="1191.974" y2="70" stroke="#3B4654" stroke-width="1" stroke-linecap="butt"/><line x1="1102.775" y1="430" x2="1201.2305" y2="70" stroke="#3B4654" stroke-width="1" stroke-linecap="butt"/><line x1="1144.8500000000001" y1="430" x2="1210.4869999999999" y2="70" stroke="#3B4654" stroke-width="1" stroke-linecap="butt"/><line x1="1186.925" y1="430" x2="1219.7435" y2="70" stroke="#3B4654" stroke-width="1" stroke-linecap="butt"/><line x1="1229.0" y1="430" x2="1229.0" y2="70" stroke="#3B4654" stroke-width="1" stroke-linecap="butt"/><line x1="1271.075" y1="430" x2="1238.2565" y2="70" stroke="#3B4654" stroke-width="1" stroke-linecap="butt"/><line x1="1313.15" y1="430" x2="1247.513" y2="70" stroke="#3B4654" stroke-width="1" stroke-linecap="butt"/><line x1="1355.225" y1="430" x2="1256.7694999999999" y2="70" stroke="#3B4654" stroke-width="1" stroke-linecap="butt"/><line x1="1397.3" y1="430" x2="1266.0259999999998" y2="70" stroke="#3B4654" stroke-width="1" stroke-linecap="butt"/><line x1="1060.7" y1="430.0" x2="1397.3" y2="430.0" stroke="#3B4654" stroke-width="1" stroke-linecap="butt"/><line x1="1086.9548" y1="358.0" x2="1371.0452" y2="358.0" stroke="#3B4654" stroke-width="1" stroke-linecap="butt"/><line x1="1113.2096" y1="286.0" x2="1344.7904" y2="286.0" stroke="#3B4654" stroke-width="1" stroke-linecap="butt"/><line x1="1139.4644" y1="214.0" x2="1318.5356" y2="214.0" stroke="#3B4654" stroke-width="1" stroke-linecap="butt"/><line x1="1165.7192" y1="142.0" x2="1292.2808" y2="142.0" stroke="#3B4654" stroke-width="1" stroke-linecap="butt"/><line x1="1191.974" y1="70.0" x2="1266.026" y2="70.0" stroke="#3B4654" stroke-width="1" stroke-linecap="butt"/></g><g id="mm" opacity="0.95"><ellipse cx="1229.0" cy="362.0" rx="24" ry="7.2" fill="none" stroke="#6C8DAF" stroke-width="1.2"/><ellipse cx="1229.0" cy="406.0" rx="24" ry="7.2" fill="none" stroke="#6C8DAF" stroke-width="1.2" opacity="0.55"/><ellipse cx="1229.0" cy="373.0" rx="24" ry="7.2" fill="none" stroke="#6C8DAF" stroke-width="1.2" opacity="0.32"/><ellipse cx="1229.0" cy="384.0" rx="24" ry="7.2" fill="none" stroke="#6C8DAF" stroke-width="1.2" opacity="0.32"/><ellipse cx="1229.0" cy="395.0" rx="24" ry="7.2" fill="none" stroke="#6C8DAF" stroke-width="1.2" opacity="0.32"/><line x1="1253.0" y1="362.0" x2="1253.0" y2="406.0" stroke="#6C8DAF" stroke-width="1.2" stroke-linecap="butt" opacity="0.5"/><line x1="1249.7846096908265" y1="365.6" x2="1249.7846096908265" y2="409.6" stroke="#6C8DAF" stroke-width="1.2" stroke-linecap="butt" opacity="0.5"/><line x1="1241.0" y1="368.235382907248" x2="1241.0" y2="412.235382907248" stroke="#6C8DAF" stroke-width="1.2" stroke-linecap="butt" opacity="0.5"/><line x1="1229.0" y1="369.2" x2="1229.0" y2="413.2" stroke="#6C8DAF" stroke-width="1.2" stroke-linecap="butt" opacity="0.5"/><line x1="1217.0" y1="368.235382907248" x2="1217.0" y2="412.235382907248" stroke="#6C8DAF" stroke-width="1.2" stroke-linecap="butt" opacity="0.5"/><line x1="1208.2153903091735" y1="365.6" x2="1208.2153903091735" y2="409.6" stroke="#6C8DAF" stroke-width="1.2" stroke-linecap="butt" opacity="0.5"/><line x1="1205.0" y1="362.0" x2="1205.0" y2="406.0" stroke="#6C8DAF" stroke-width="1.2" stroke-linecap="butt" opacity="0.5"/><line x1="1208.2153903091735" y1="358.4" x2="1208.2153903091735" y2="402.4" stroke="#6C8DAF" stroke-width="1.2" stroke-linecap="butt" opacity="0.5"/><line x1="1217.0" y1="355.764617092752" x2="1217.0" y2="399.764617092752" stroke="#6C8DAF" stroke-width="1.2" stroke-linecap="butt" opacity="0.5"/><line x1="1229.0" y1="354.8" x2="1229.0" y2="398.8" stroke="#6C8DAF" stroke-width="1.2" stroke-linecap="butt" opacity="0.5"/><line x1="1241.0" y1="355.764617092752" x2="1241.0" y2="399.764617092752" stroke="#6C8DAF" stroke-width="1.2" stroke-linecap="butt" opacity="0.5"/><line x1="1249.7846096908265" y1="358.4" x2="1249.7846096908265" y2="402.4" stroke="#6C8DAF" stroke-width="1.2" stroke-linecap="butt" opacity="0.5"/><line x1="1205.0" y1="362.0" x2="1205.0" y2="406.0" stroke="#6C8DAF" stroke-width="1.2" stroke-linecap="butt"/><line x1="1253.0" y1="362.0" x2="1253.0" y2="406.0" stroke="#6C8DAF" stroke-width="1.2" stroke-linecap="butt"/><path d="M 1249.0 358.0 C 1311.0 354.0, 1311.0 414.0, 1249.0 410.0" fill="none" stroke="#6C8DAF" stroke-width="1.2"/></g><line x1="1259.0" y1="370.0" x2="1279.0" y2="354.0" stroke="#D99D1B" stroke-width="1.5" stroke-linecap="round" opacity="1.0"/><path d="M 1279.0 354.0 L 1277.1 358.6 M 1279.0 354.0 L 1274.1 354.9" stroke="#D99D1B" stroke-width="1.5" stroke-linecap="round" fill="none" opacity="1.0"/></g><rect x="1130.0" y="326" width="198" height="100" rx="6" fill="none" stroke="#202227" stroke-width="1"/><text x="1130.0" y="450" font-family="Newsreader, 'Times New Roman', Georgia, serif" font-size="14.5" fill="#F4F1E9" font-weight="500">Manipulate an object</text><text x="1130.0" y="470" font-family="Archivo, 'Helvetica Neue', Arial, sans-serif" font-size="10.5" fill="#90959C"><tspan x="1130.0" dy="0">Move and shape with live feedback.</tspan></text></g><g id="step_06"><rect x="96.0" y="596" width="230" height="250" rx="10" fill="#0A0A0B" stroke="#202227" stroke-width="1"/><text x="112.0" y="622" font-family="'IBM Plex Mono', 'SFMono-Regular', Menlo, monospace" font-size="9" fill="#EA7600" font-weight="500" letter-spacing="1">STEP 06</text><text x="310.0" y="622" font-family="'IBM Plex Mono', 'SFMono-Regular', Menlo, monospace" font-size="9" fill="#3C414A" font-weight="500" text-anchor="end">06</text><clipPath id="clip5"><rect x="112.0" y="634" width="198" height="100" rx="6"/></clipPath><g clip-path="url(#clip5)"><rect x="112.0" y="634" width="198" height="100" fill="#070708"/><g transform="rotate(-9 211.0 684.0)"><g id="mr" opacity="0.32"><line x1="-7.0" y1="764" x2="131.6" y2="404" stroke="#3B4654" stroke-width="1" stroke-linecap="butt"/><line x1="49.57142857142857" y1="764" x2="148.57142857142856" y2="404" stroke="#3B4654" stroke-width="1" stroke-linecap="butt"/><line x1="106.14285714285714" y1="764" x2="165.54285714285714" y2="404" stroke="#3B4654" stroke-width="1" stroke-linecap="butt"/><line x1="162.7142857142857" y1="764" x2="182.5142857142857" y2="404" stroke="#3B4654" stroke-width="1" stroke-linecap="butt"/><line x1="219.28571428571428" y1="764" x2="199.48571428571427" y2="404" stroke="#3B4654" stroke-width="1" stroke-linecap="butt"/><line x1="275.8571428571429" y1="764" x2="216.45714285714286" y2="404" stroke="#3B4654" stroke-width="1" stroke-linecap="butt"/><line x1="332.4285714285714" y1="764" x2="233.42857142857142" y2="404" stroke="#3B4654" stroke-width="1" stroke-linecap="butt"/><line x1="389.0" y1="764" x2="250.39999999999998" y2="404" stroke="#3B4654" stroke-width="1" stroke-linecap="butt"/><line x1="-7.0" y1="764.0" x2="389.0" y2="764.0" stroke="#3B4654" stroke-width="1" stroke-linecap="butt"/><line x1="27.650000000000006" y1="674.0" x2="354.35" y2="674.0" stroke="#3B4654" stroke-width="1" stroke-linecap="butt"/><line x1="62.30000000000001" y1="584.0" x2="319.7" y2="584.0" stroke="#3B4654" stroke-width="1" stroke-linecap="butt"/><line x1="96.95" y1="494.0" x2="285.05" y2="494.0" stroke="#3B4654" stroke-width="1" stroke-linecap="butt"/><line x1="131.6" y1="404.0" x2="250.4" y2="404.0" stroke="#3B4654" stroke-width="1" stroke-linecap="butt"/></g></g><circle cx="211.0" cy="684.0" r="16" fill="#1A140C" stroke="#EA7600" stroke-width="1.6"/><g id="ic_recover" fill="none" stroke="#EA7600" stroke-width="1.6" stroke-linecap="round" stroke-linejoin="round" opacity="1.0"><path d="M 217.2 684.0 A 6.2 6.2 0 1 1 211.0 677.8"/><path d="M 211.0 672.8 L 211.0 682.8 L 204.0 677.8 Z" fill="#EA7600" stroke="none"/></g></g><rect x="112.0" y="634" width="198" height="100" rx="6" fill="none" stroke="#202227" stroke-width="1"/><text x="112.0" y="758" font-family="Newsreader, 'Times New Roman', Georgia, serif" font-size="14.5" fill="#F4F1E9" font-weight="500">Recover when lost</text><text x="112.0" y="778" font-family="Archivo, 'Helvetica Neue', Arial, sans-serif" font-size="10.5" fill="#90959C"><tspan x="112.0" dy="0">One tap returns you to safe.</tspan></text></g><g id="step_07"><rect x="350.5" y="596" width="230" height="250" rx="10" fill="#0A0A0B" stroke="#202227" stroke-width="1"/><text x="366.5" y="622" font-family="'IBM Plex Mono', 'SFMono-Regular', Menlo, monospace" font-size="9" fill="#EA7600" font-weight="500" letter-spacing="1">STEP 07</text><text x="564.5" y="622" font-family="'IBM Plex Mono', 'SFMono-Regular', Menlo, monospace" font-size="9" fill="#3C414A" font-weight="500" text-anchor="end">07</text><clipPath id="clip6"><rect x="366.5" y="634" width="198" height="100" rx="6"/></clipPath><g clip-path="url(#clip6)"><rect x="366.5" y="634" width="198" height="100" fill="#070708"/><g id="mg" opacity="0.28"><line x1="297.20000000000005" y1="738" x2="428.474" y2="378" stroke="#3B4654" stroke-width="1" stroke-linecap="butt"/><line x1="339.27500000000003" y1="738" x2="437.7305" y2="378" stroke="#3B4654" stroke-width="1" stroke-linecap="butt"/><line x1="381.35" y1="738" x2="446.98699999999997" y2="378" stroke="#3B4654" stroke-width="1" stroke-linecap="butt"/><line x1="423.42500000000007" y1="738" x2="456.2435" y2="378" stroke="#3B4654" stroke-width="1" stroke-linecap="butt"/><line x1="465.5" y1="738" x2="465.5" y2="378" stroke="#3B4654" stroke-width="1" stroke-linecap="butt"/><line x1="507.57500000000005" y1="738" x2="474.75649999999996" y2="378" stroke="#3B4654" stroke-width="1" stroke-linecap="butt"/><line x1="549.6500000000001" y1="738" x2="484.013" y2="378" stroke="#3B4654" stroke-width="1" stroke-linecap="butt"/><line x1="591.725" y1="738" x2="493.2695" y2="378" stroke="#3B4654" stroke-width="1" stroke-linecap="butt"/><line x1="633.8" y1="738" x2="502.52599999999995" y2="378" stroke="#3B4654" stroke-width="1" stroke-linecap="butt"/><line x1="297.20000000000005" y1="738.0" x2="633.8" y2="738.0" stroke="#3B4654" stroke-width="1" stroke-linecap="butt"/><line x1="323.4548" y1="666.0" x2="607.5452" y2="666.0" stroke="#3B4654" stroke-width="1" stroke-linecap="butt"/><line x1="349.7096" y1="594.0" x2="581.2904" y2="594.0" stroke="#3B4654" stroke-width="1" stroke-linecap="butt"/><line x1="375.9644" y1="522.0" x2="555.0355999999999" y2="522.0" stroke="#3B4654" stroke-width="1" stroke-linecap="butt"/><line x1="402.2192" y1="450.0" x2="528.7808" y2="450.0" stroke="#3B4654" stroke-width="1" stroke-linecap="butt"/><line x1="428.474" y1="378.0" x2="502.526" y2="378.0" stroke="#3B4654" stroke-width="1" stroke-linecap="butt"/></g><rect x="399.5" y="668.0" width="132" height="32" rx="8" fill="#0E1410" stroke="#5E8C4A" stroke-width="1"/><path d="M 413.5 684.0 L 416.5 687.0 L 422.5 680.0" fill="none" stroke="#5E8C4A" stroke-width="1.8" stroke-linecap="round" stroke-linejoin="round"/><text x="431.5" y="688.0" font-family="Archivo, 'Helvetica Neue', Arial, sans-serif" font-size="9" fill="#F4F1E9" font-weight="700" letter-spacing="0.8">CHECKPOINT 2 / 4</text></g><rect x="366.5" y="634" width="198" height="100" rx="6" fill="none" stroke="#202227" stroke-width="1"/><text x="366.5" y="758" font-family="Newsreader, 'Times New Roman', Georgia, serif" font-size="14.5" fill="#F4F1E9" font-weight="500">Checkpoint saved</text><text x="366.5" y="778" font-family="Archivo, 'Helvetica Neue', Arial, sans-serif" font-size="10.5" fill="#90959C"><tspan x="366.5" dy="0">Progress is captured automatically.</tspan></text></g><g id="step_08"><rect x="605.0" y="596" width="230" height="250" rx="10" fill="#0A0A0B" stroke="#202227" stroke-width="1"/><text x="621.0" y="622" font-family="'IBM Plex Mono', 'SFMono-Regular', Menlo, monospace" font-size="9" fill="#EA7600" font-weight="500" letter-spacing="1">STEP 08</text><text x="819.0" y="622" font-family="'IBM Plex Mono', 'SFMono-Regular', Menlo, monospace" font-size="9" fill="#3C414A" font-weight="500" text-anchor="end">08</text><clipPath id="clip7"><rect x="621.0" y="634" width="198" height="100" rx="6"/></clipPath><g clip-path="url(#clip7)"><rect x="621.0" y="634" width="198" height="100" fill="#070708"/><g id="mg" opacity="0.4"><line x1="551.7" y1="738" x2="682.974" y2="378" stroke="#3B4654" stroke-width="1" stroke-linecap="butt"/><line x1="593.7750000000001" y1="738" x2="692.2305" y2="378" stroke="#3B4654" stroke-width="1" stroke-linecap="butt"/><line x1="635.85" y1="738" x2="701.4870000000001" y2="378" stroke="#3B4654" stroke-width="1" stroke-linecap="butt"/><line x1="677.9250000000001" y1="738" x2="710.7435" y2="378" stroke="#3B4654" stroke-width="1" stroke-linecap="butt"/><line x1="720.0" y1="738" x2="720.0" y2="378" stroke="#3B4654" stroke-width="1" stroke-linecap="butt"/><line x1="762.075" y1="738" x2="729.2565000000001" y2="378" stroke="#3B4654" stroke-width="1" stroke-linecap="butt"/><line x1="804.1500000000001" y1="738" x2="738.513" y2="378" stroke="#3B4654" stroke-width="1" stroke-linecap="butt"/><line x1="846.225" y1="738" x2="747.7695" y2="378" stroke="#3B4654" stroke-width="1" stroke-linecap="butt"/><line x1="888.3" y1="738" x2="757.0260000000001" y2="378" stroke="#3B4654" stroke-width="1" stroke-linecap="butt"/><line x1="551.7" y1="738.0" x2="888.3" y2="738.0" stroke="#3B4654" stroke-width="1" stroke-linecap="butt"/><line x1="577.9548" y1="666.0" x2="862.0452" y2="666.0" stroke="#3B4654" stroke-width="1" stroke-linecap="butt"/><line x1="604.2096" y1="594.0" x2="835.7904" y2="594.0" stroke="#3B4654" stroke-width="1" stroke-linecap="butt"/><line x1="630.4644000000001" y1="522.0" x2="809.5355999999999" y2="522.0" stroke="#3B4654" stroke-width="1" stroke-linecap="butt"/><line x1="656.7192" y1="450.0" x2="783.2808" y2="450.0" stroke="#3B4654" stroke-width="1" stroke-linecap="butt"/><line x1="682.974" y1="378.0" x2="757.026" y2="378.0" stroke="#3B4654" stroke-width="1" stroke-linecap="butt"/></g><g id="mo" opacity="0.95"><ellipse cx="720.0" cy="668.0" rx="26" ry="7.8" fill="none" stroke="#5E8C4A" stroke-width="1.4"/><ellipse cx="720.0" cy="716.0" rx="26" ry="7.8" fill="none" stroke="#5E8C4A" stroke-width="1.4" opacity="0.55"/><ellipse cx="720.0" cy="680.0" rx="26" ry="7.8" fill="none" stroke="#5E8C4A" stroke-width="1.4" opacity="0.32"/><ellipse cx="720.0" cy="692.0" rx="26" ry="7.8" fill="none" stroke="#5E8C4A" stroke-width="1.4" opacity="0.32"/><ellipse cx="720.0" cy="704.0" rx="26" ry="7.8" fill="none" stroke="#5E8C4A" stroke-width="1.4" opacity="0.32"/><line x1="746.0" y1="668.0" x2="746.0" y2="716.0" stroke="#5E8C4A" stroke-width="1.4" stroke-linecap="butt" opacity="0.5"/><line x1="742.5166604983954" y1="671.9" x2="742.5166604983954" y2="719.9" stroke="#5E8C4A" stroke-width="1.4" stroke-linecap="butt" opacity="0.5"/><line x1="733.0" y1="674.7549981495187" x2="733.0" y2="722.7549981495187" stroke="#5E8C4A" stroke-width="1.4" stroke-linecap="butt" opacity="0.5"/><line x1="720.0" y1="675.8" x2="720.0" y2="723.8" stroke="#5E8C4A" stroke-width="1.4" stroke-linecap="butt" opacity="0.5"/><line x1="707.0" y1="674.7549981495187" x2="707.0" y2="722.7549981495187" stroke="#5E8C4A" stroke-width="1.4" stroke-linecap="butt" opacity="0.5"/><line x1="697.4833395016046" y1="671.9" x2="697.4833395016046" y2="719.9" stroke="#5E8C4A" stroke-width="1.4" stroke-linecap="butt" opacity="0.5"/><line x1="694.0" y1="668.0" x2="694.0" y2="716.0" stroke="#5E8C4A" stroke-width="1.4" stroke-linecap="butt" opacity="0.5"/><line x1="697.4833395016046" y1="664.1" x2="697.4833395016046" y2="712.1" stroke="#5E8C4A" stroke-width="1.4" stroke-linecap="butt" opacity="0.5"/><line x1="707.0" y1="661.2450018504813" x2="707.0" y2="709.2450018504813" stroke="#5E8C4A" stroke-width="1.4" stroke-linecap="butt" opacity="0.5"/><line x1="720.0" y1="660.2" x2="720.0" y2="708.2" stroke="#5E8C4A" stroke-width="1.4" stroke-linecap="butt" opacity="0.5"/><line x1="733.0" y1="661.2450018504813" x2="733.0" y2="709.2450018504813" stroke="#5E8C4A" stroke-width="1.4" stroke-linecap="butt" opacity="0.5"/><line x1="742.5166604983954" y1="664.1" x2="742.5166604983954" y2="712.1" stroke="#5E8C4A" stroke-width="1.4" stroke-linecap="butt" opacity="0.5"/><line x1="694.0" y1="668.0" x2="694.0" y2="716.0" stroke="#5E8C4A" stroke-width="1.4" stroke-linecap="butt"/><line x1="746.0" y1="668.0" x2="746.0" y2="716.0" stroke="#5E8C4A" stroke-width="1.4" stroke-linecap="butt"/><path d="M 742.0 666.0 C 804.0 662.0, 804.0 722.0, 742.0 718.0" fill="none" stroke="#5E8C4A" stroke-width="1.4"/></g><circle cx="797.0" cy="654" r="10" fill="#5E8C4A"/><path d="M 792.5 654 L 796.0 657.5 L 802.0 650 " fill="none" stroke="#0A0A0A" stroke-width="1.8" stroke-linecap="round" stroke-linejoin="round"/></g><rect x="621.0" y="634" width="198" height="100" rx="6" fill="none" stroke="#202227" stroke-width="1"/><text x="621.0" y="758" font-family="Newsreader, 'Times New Roman', Georgia, serif" font-size="14.5" fill="#F4F1E9" font-weight="500">Create first object</text><text x="621.0" y="778" font-family="Archivo, 'Helvetica Neue', Arial, sans-serif" font-size="10.5" fill="#90959C"><tspan x="621.0" dy="0">A finished mug — proof it works.</tspan></text></g><g id="step_09"><rect x="859.5" y="596" width="230" height="250" rx="10" fill="#0A0A0B" stroke="#202227" stroke-width="1"/><text x="875.5" y="622" font-family="'IBM Plex Mono', 'SFMono-Regular', Menlo, monospace" font-size="9" fill="#EA7600" font-weight="500" letter-spacing="1">STEP 09</text><text x="1073.5" y="622" font-family="'IBM Plex Mono', 'SFMono-Regular', Menlo, monospace" font-size="9" fill="#3C414A" font-weight="500" text-anchor="end">09</text><clipPath id="clip8"><rect x="875.5" y="634" width="198" height="100" rx="6"/></clipPath><g clip-path="url(#clip8)"><rect x="875.5" y="634" width="198" height="100" fill="#070708"/><rect x="944.5" y="652" width="60" height="64" rx="4" fill="#101216" stroke="#2A2D33" stroke-width="1"/><line x1="954.5" y1="668" x2="994.5" y2="668" stroke="#666B73" stroke-width="1" stroke-linecap="butt"/><line x1="954.5" y1="678" x2="994.5" y2="678" stroke="#666B73" stroke-width="1" stroke-linecap="butt"/><line x1="954.5" y1="688" x2="994.5" y2="688" stroke="#666B73" stroke-width="1" stroke-linecap="butt"/><g id="ic_export" fill="none" stroke="#EA7600" stroke-width="1.5" stroke-linecap="round" stroke-linejoin="round" opacity="1.0"><path d="M 1018.5 683.5 L 1018.5 671.4"/><path d="M 1014.6 675.2 L 1018.5 671.4 L 1022.4 675.2"/><path d="M 1009.7 681.9 v 5.0 h 17.6 v -5.0"/></g><text x="974.5" y="730" font-family="'IBM Plex Mono', 'SFMono-Regular', Menlo, monospace" font-size="8.5" fill="#90959C" text-anchor="middle" letter-spacing="0.3">reference.pdf</text></g><rect x="875.5" y="634" width="198" height="100" rx="6" fill="none" stroke="#202227" stroke-width="1"/><text x="875.5" y="758" font-family="Newsreader, 'Times New Roman', Georgia, serif" font-size="14.5" fill="#F4F1E9" font-weight="500">Export &amp; reference</text><text x="875.5" y="778" font-family="Archivo, 'Helvetica Neue', Arial, sans-serif" font-size="10.5" fill="#90959C"><tspan x="875.5" dy="0">Leave with the object and a cheat</tspan><tspan x="875.5" dy="14">sheet.</tspan></text></g><g id="flow_connectors"><line x1="330.0" y1="388" x2="346.5" y2="388" stroke="#90959C" stroke-width="1.4" stroke-linecap="round" opacity="1.0"/><path d="M 346.5 388.0 L 341.2 390.9 M 346.5 388.0 L 341.2 385.1" stroke="#90959C" stroke-width="1.4" stroke-linecap="round" fill="none" opacity="1.0"/><line x1="584.5" y1="388" x2="601.0" y2="388" stroke="#90959C" stroke-width="1.4" stroke-linecap="round" opacity="1.0"/><path d="M 601.0 388.0 L 595.7 390.9 M 601.0 388.0 L 595.7 385.1" stroke="#90959C" stroke-width="1.4" stroke-linecap="round" fill="none" opacity="1.0"/><line x1="839.0" y1="388" x2="855.5" y2="388" stroke="#90959C" stroke-width="1.4" stroke-linecap="round" opacity="1.0"/><path d="M 855.5 388.0 L 850.2 390.9 M 855.5 388.0 L 850.2 385.1" stroke="#90959C" stroke-width="1.4" stroke-linecap="round" fill="none" opacity="1.0"/><line x1="1093.5" y1="388" x2="1110.0" y2="388" stroke="#90959C" stroke-width="1.4" stroke-linecap="round" opacity="1.0"/><path d="M 1110.0 388.0 L 1104.7 390.9 M 1110.0 388.0 L 1104.7 385.1" stroke="#90959C" stroke-width="1.4" stroke-linecap="round" fill="none" opacity="1.0"/><path d="M 1229.0 540 L 1229.0 567.0 L 211.0 567.0 L 211.0 584" fill="none" stroke="#D99D1B" stroke-width="1.4" stroke-linecap="round" stroke-linejoin="round" opacity="0.9" stroke-dasharray="1 5"/><line x1="211.0" y1="582" x2="211.0" y2="593" stroke="#D99D1B" stroke-width="1.4" stroke-linecap="round" opacity="1.0"/><path d="M 211.0 593.0 L 208.1 587.7 M 211.0 593.0 L 213.9 587.7" stroke="#D99D1B" stroke-width="1.4" stroke-linecap="round" fill="none" opacity="1.0"/><line x1="330.0" y1="696" x2="346.5" y2="696" stroke="#90959C" stroke-width="1.4" stroke-linecap="round" opacity="1.0"/><path d="M 346.5 696.0 L 341.2 698.9 M 346.5 696.0 L 341.2 693.1" stroke="#90959C" stroke-width="1.4" stroke-linecap="round" fill="none" opacity="1.0"/><line x1="584.5" y1="696" x2="601.0" y2="696" stroke="#90959C" stroke-width="1.4" stroke-linecap="round" opacity="1.0"/><path d="M 601.0 696.0 L 595.7 698.9 M 601.0 696.0 L 595.7 693.1" stroke="#90959C" stroke-width="1.4" stroke-linecap="round" fill="none" opacity="1.0"/><line x1="839.0" y1="696" x2="855.5" y2="696" stroke="#90959C" stroke-width="1.4" stroke-linecap="round" opacity="1.0"/><path d="M 855.5 696.0 L 850.2 698.9 M 855.5 696.0 L 850.2 693.1" stroke="#90959C" stroke-width="1.4" stroke-linecap="round" fill="none" opacity="1.0"/></g><text x="720.0" y="564" font-family="Archivo, 'Helvetica Neue', Arial, sans-serif" font-size="9" fill="#666B73" font-weight="700" text-anchor="middle" letter-spacing="2">ONE BRANCH · SAME SAFETY NET</text><line x1="96" y1="918" x2="1344" y2="918" stroke="#202227" stroke-width="1" stroke-linecap="butt"/><text x="96" y="900" font-family="Archivo, 'Helvetica Neue', Arial, sans-serif" font-size="10.5" fill="#EA7600" font-weight="700" letter-spacing="3">DESIGN INTENT</text><text x="264" y="900" font-family="Archivo, 'Helvetica Neue', Arial, sans-serif" font-size="12.5" fill="#90959C" font-weight="400">Every step answers the same question a beginner is silently asking: where am I, what do I do, and how do I undo it?</text></g>
</svg>
