<?xml version="1.0" encoding="UTF-8"?>
<svg width="1440" height="1024" viewBox="0 0 1440 1024" fill="none" xmlns="http://www.w3.org/2000/svg" xmlns:xlink="http://www.w3.org/1999/xlink">
<rect width="1440" height="1024" fill="#050505"/>
<g id="slide_06_prototype_detail"><g id="chrome"><text x="96" y="60" font-family="Archivo, 'Helvetica Neue', Arial, sans-serif" font-size="12.5" fill="#F4F1E9" font-weight="700" letter-spacing="3.2">THE FIRST HOUR</text><text x="96" y="76" font-family="Archivo, 'Helvetica Neue', Arial, sans-serif" font-size="10" fill="#666B73" font-weight="600" letter-spacing="3.2">MAKING BLENDER LEGIBLE</text><text x="1344" y="60" font-family="Archivo, 'Helvetica Neue', Arial, sans-serif" font-size="12.5" fill="#90959C" font-weight="600" text-anchor="end" letter-spacing="2.6">06 / PROTOTYPE DETAIL</text><text x="1344" y="76" font-family="'IBM Plex Mono', 'SFMono-Regular', Menlo, monospace" font-size="10" fill="#EA7600" font-weight="500" text-anchor="end" letter-spacing="1">06 — 07</text><line x1="96" y1="84" x2="1344" y2="84" stroke="#202227" stroke-width="1" stroke-linecap="butt"/><line x1="96" y1="960" x2="1344" y2="960" stroke="#202227" stroke-width="1" stroke-linecap="butt"/><text x="96" y="980" font-family="Archivo, 'Helvetica Neue', Arial, sans-serif" font-size="10" fill="#666B73" font-weight="600" letter-spacing="2.6">ALEXANDRA SUGATAN</text><text x="264" y="980" font-family="Archivo, 'Helvetica Neue', Arial, sans-serif" font-size="10" fill="#3C414A" font-weight="600" letter-spacing="2.6">UX / UI RESEARCH · PRODUCT DESIGN</text><text x="1344" y="980" font-family="'IBM Plex Mono', 'SFMono-Regular', Menlo, monospace" font-size="10" fill="#3C414A" font-weight="400" text-anchor="end" letter-spacing="1">COGS 127 · THE FIRST HOUR</text></g><text x="96" y="150" font-family="Archivo, 'Helvetica Neue', Arial, sans-serif" font-size="11" fill="#EA7600" font-weight="700" letter-spacing="3">PROTOTYPE  ·  THE SYSTEM, STATE BY STATE</text><text x="96" y="200" font-family="Newsreader, 'Times New Roman', Georgia, serif" font-size="31" fill="#F4F1E9" font-weight="500">Six states where the interface finally speaks.</text><text x="1344" y="188" font-family="Archivo, 'Helvetica Neue', Arial, sans-serif" font-size="10.5" fill="#90959C" font-weight="500" text-anchor="end">Orange marks the one thing</text><text x="1344" y="204" font-family="Archivo, 'Helvetica Neue', Arial, sans-serif" font-size="10.5" fill="#90959C" font-weight="500" text-anchor="end">teaching the user in each state.</text><g id="state_01"><rect x="96.0" y="264" width="397.3333333333333" height="300" rx="10" fill="#08090A" stroke="#202227" stroke-width="1"/><text x="114.0" y="292" font-family="'IBM Plex Mono', 'SFMono-Regular', Menlo, monospace" font-size="9" fill="#EA7600" font-weight="500" letter-spacing="1.5">STATE 01</text><text x="114.0" y="314" font-family="Newsreader, 'Times New Roman', Georgia, serif" font-size="15" fill="#F4F1E9" font-weight="500">First-open orientation</text><text x="114.0" y="332" font-family="Archivo, 'Helvetica Neue', Arial, sans-serif" font-size="10.5" fill="#90959C"><tspan x="114.0" dy="0">A welcome that teaches looking, not lore.</tspan></text><clipPath id="cl6_0"><rect x="114.0" y="356" width="361.3333333333333" height="190" rx="6"/></clipPath><g clip-path="url(#cl6_0)"><rect x="114.0" y="356" width="361.3333333333333" height="190" rx="6" fill="#0A0A0B" stroke="#2A2D33" stroke-width="1"/><rect x="114.0" y="356" width="361.3333333333333" height="16" rx="6" fill="#0E0F11"/><rect x="114.0" y="364" width="361.3333333333333" height="8" fill="#0E0F11"/><circle cx="124.0" cy="364" r="2" fill="#3A3D43"/><circle cx="131.0" cy="364" r="2" fill="#3A3D43"/><circle cx="138.0" cy="364" r="2" fill="#3A3D43"/><rect x="114.0" y="372" width="361.3333333333333" height="22" fill="#101216"/><g id="vg" opacity="0.22"><line x1="-12.466666666666697" y1="550" x2="227.0973333333333" y2="190" stroke="#3B4654" stroke-width="1" stroke-linecap="butt"/><line x1="55.785185185185156" y1="550" x2="242.1127407407407" y2="190" stroke="#3B4654" stroke-width="1" stroke-linecap="butt"/><line x1="124.03703703703701" y1="550" x2="257.1281481481481" y2="190" stroke="#3B4654" stroke-width="1" stroke-linecap="butt"/><line x1="192.28888888888883" y1="550" x2="272.1435555555555" y2="190" stroke="#3B4654" stroke-width="1" stroke-linecap="butt"/><line x1="260.5407407407407" y1="550" x2="287.1589629629629" y2="190" stroke="#3B4654" stroke-width="1" stroke-linecap="butt"/><line x1="328.79259259259254" y1="550" x2="302.17437037037035" y2="190" stroke="#3B4654" stroke-width="1" stroke-linecap="butt"/><line x1="397.04444444444437" y1="550" x2="317.18977777777775" y2="190" stroke="#3B4654" stroke-width="1" stroke-linecap="butt"/><line x1="465.29629629629625" y1="550" x2="332.20518518518514" y2="190" stroke="#3B4654" stroke-width="1" stroke-linecap="butt"/><line x1="533.5481481481481" y1="550" x2="347.22059259259254" y2="190" stroke="#3B4654" stroke-width="1" stroke-linecap="butt"/><line x1="601.8" y1="550" x2="362.236" y2="190" stroke="#3B4654" stroke-width="1" stroke-linecap="butt"/><line x1="-12.466666666666697" y1="550.0" x2="601.8" y2="550.0" stroke="#3B4654" stroke-width="1" stroke-linecap="butt"/><line x1="35.44613333333331" y1="478.0" x2="553.8871999999999" y2="478.0" stroke="#3B4654" stroke-width="1" stroke-linecap="butt"/><line x1="83.35893333333328" y1="406.0" x2="505.97439999999995" y2="406.0" stroke="#3B4654" stroke-width="1" stroke-linecap="butt"/><line x1="131.2717333333333" y1="334.0" x2="458.0616" y2="334.0" stroke="#3B4654" stroke-width="1" stroke-linecap="butt"/><line x1="179.18453333333332" y1="262.0" x2="410.14879999999994" y2="262.0" stroke="#3B4654" stroke-width="1" stroke-linecap="butt"/><line x1="227.0973333333333" y1="190.0" x2="362.236" y2="190.0" stroke="#3B4654" stroke-width="1" stroke-linecap="butt"/></g><rect x="114.0" y="356" width="361.3333333333333" height="190" rx="6" fill="#050505" opacity="0.55"/><rect x="182.65333333333334" y="408.0" width="224.02666666666664" height="86" rx="8" fill="#10131A" stroke="#2A2D33" stroke-width="1"/><text x="200.65333333333334" y="434.0" font-family="Newsreader, 'Times New Roman', Georgia, serif" font-size="13" fill="#F4F1E9" font-weight="500">Let’s get you oriented.</text><text x="200.65333333333334" y="452.0" font-family="Archivo, 'Helvetica Neue', Arial, sans-serif" font-size="10" fill="#90959C"><tspan x="200.65333333333334" dy="0">Three things first: where you are,</tspan><tspan x="200.65333333333334" dy="13">how to look, how to undo.</tspan></text><rect x="200.65333333333334" y="468.0" width="78" height="20" rx="5" fill="#EA7600"/><text x="239.65333333333334" y="481.0" font-family="Archivo, 'Helvetica Neue', Arial, sans-serif" font-size="8.5" fill="#0A0A0A" font-weight="700" text-anchor="middle" letter-spacing="1">SHOW ME</text><rect x="286.6533333333333" y="468.0" width="56" height="20" rx="5" fill="none" stroke="#2A2D33" stroke-width="1"/><text x="314.6533333333333" y="481.0" font-family="Archivo, 'Helvetica Neue', Arial, sans-serif" font-size="8.5" fill="#90959C" font-weight="700" text-anchor="middle" letter-spacing="1">SKIP</text></g><rect x="114.0" y="356" width="361.3333333333333" height="190" rx="6" fill="none" stroke="#202227" stroke-width="1"/></g><g id="state_02"><rect x="521.3333333333333" y="264" width="397.3333333333333" height="300" rx="10" fill="#08090A" stroke="#202227" stroke-width="1"/><text x="539.3333333333333" y="292" font-family="'IBM Plex Mono', 'SFMono-Regular', Menlo, monospace" font-size="9" fill="#EA7600" font-weight="500" letter-spacing="1.5">STATE 02</text><text x="539.3333333333333" y="314" font-family="Newsreader, 'Times New Roman', Georgia, serif" font-size="15" fill="#F4F1E9" font-weight="500">Reduced, focused UI</text><text x="539.3333333333333" y="332" font-family="Archivo, 'Helvetica Neue', Arial, sans-serif" font-size="10.5" fill="#90959C"><tspan x="539.3333333333333" dy="0">Only the tools the task needs; the rest recedes.</tspan></text><clipPath id="cl6_1"><rect x="539.3333333333333" y="356" width="361.3333333333333" height="190" rx="6"/></clipPath><g clip-path="url(#cl6_1)"><rect x="539.3333333333333" y="356" width="361.3333333333333" height="190" rx="6" fill="#0A0A0B" stroke="#2A2D33" stroke-width="1"/><rect x="539.3333333333333" y="356" width="361.3333333333333" height="16" rx="6" fill="#0E0F11"/><rect x="539.3333333333333" y="364" width="361.3333333333333" height="8" fill="#0E0F11"/><circle cx="549.3333333333333" cy="364" r="2" fill="#3A3D43"/><circle cx="556.3333333333333" cy="364" r="2" fill="#3A3D43"/><circle cx="563.3333333333333" cy="364" r="2" fill="#3A3D43"/><rect x="539.3333333333333" y="372" width="361.3333333333333" height="22" fill="#101216" opacity="0.5"/><rect x="549.3333333333333" y="404" width="30" height="130" rx="5" fill="#0D0E10" stroke="#202227" stroke-width="1" opacity="0.6"/><rect x="555.3333333333333" y="412.0" width="18" height="18" rx="4" fill="#16181C" stroke="#2A2D33" stroke-width="1" opacity="0.5"/><rect x="555.3333333333333" y="431.0" width="18" height="18" rx="4" fill="#16181C" stroke="#2A2D33" stroke-width="1" opacity="0.5"/><rect x="555.3333333333333" y="450.0" width="18" height="18" rx="4" fill="#EA7600" stroke="none" stroke-width="1" opacity="1"/><g id="ic_cube" fill="none" stroke="#0A0A0A" stroke-width="1.4" stroke-linecap="round" stroke-linejoin="round" opacity="1.0"><path d="M 564.3333333333333 453.0 L 570.3333333333333 456.3 L 570.3333333333333 462.0 L 564.3333333333333 465.0 L 558.3333333333333 462.0 L 558.3333333333333 456.3 Z"/><path d="M 558.3333333333333 456.3 L 564.3333333333333 459.6 L 570.3333333333333 456.3"/><line x1="564.3333333333333" y1="459.6" x2="564.3333333333333" y2="465.0"/></g><rect x="555.3333333333333" y="469.0" width="18" height="18" rx="4" fill="#16181C" stroke="#2A2D33" stroke-width="1" opacity="0.5"/><rect x="555.3333333333333" y="488.0" width="18" height="18" rx="4" fill="#16181C" stroke="#2A2D33" stroke-width="1" opacity="0.5"/><rect x="555.3333333333333" y="507.0" width="18" height="18" rx="4" fill="#16181C" stroke="#2A2D33" stroke-width="1" opacity="0.5"/><g opacity="0.5"><g id="vg" opacity="0.4"><line x1="481.1666666666666" y1="538" x2="682.2766666666665" y2="178" stroke="#3B4654" stroke-width="1" stroke-linecap="butt"/><line x1="538.4629629629628" y1="538" x2="694.8818518518517" y2="178" stroke="#3B4654" stroke-width="1" stroke-linecap="butt"/><line x1="595.7592592592591" y1="538" x2="707.4870370370369" y2="178" stroke="#3B4654" stroke-width="1" stroke-linecap="butt"/><line x1="653.0555555555554" y1="538" x2="720.0922222222221" y2="178" stroke="#3B4654" stroke-width="1" stroke-linecap="butt"/><line x1="710.3518518518517" y1="538" x2="732.6974074074072" y2="178" stroke="#3B4654" stroke-width="1" stroke-linecap="butt"/><line x1="767.648148148148" y1="538" x2="745.3025925925924" y2="178" stroke="#3B4654" stroke-width="1" stroke-linecap="butt"/><line x1="824.9444444444443" y1="538" x2="757.9077777777776" y2="178" stroke="#3B4654" stroke-width="1" stroke-linecap="butt"/><line x1="882.2407407407406" y1="538" x2="770.5129629629628" y2="178" stroke="#3B4654" stroke-width="1" stroke-linecap="butt"/><line x1="939.537037037037" y1="538" x2="783.118148148148" y2="178" stroke="#3B4654" stroke-width="1" stroke-linecap="butt"/><line x1="996.8333333333333" y1="538" x2="795.7233333333331" y2="178" stroke="#3B4654" stroke-width="1" stroke-linecap="butt"/><line x1="481.1666666666666" y1="538.0" x2="996.8333333333333" y2="538.0" stroke="#3B4654" stroke-width="1" stroke-linecap="butt"/><line x1="521.3886666666666" y1="466.0" x2="956.6113333333332" y2="466.0" stroke="#3B4654" stroke-width="1" stroke-linecap="butt"/><line x1="561.6106666666666" y1="394.0" x2="916.3893333333332" y2="394.0" stroke="#3B4654" stroke-width="1" stroke-linecap="butt"/><line x1="601.8326666666666" y1="322.0" x2="876.1673333333332" y2="322.0" stroke="#3B4654" stroke-width="1" stroke-linecap="butt"/><line x1="642.0546666666665" y1="250.0" x2="835.9453333333332" y2="250.0" stroke="#3B4654" stroke-width="1" stroke-linecap="butt"/><line x1="682.2766666666665" y1="178.0" x2="795.7233333333332" y2="178.0" stroke="#3B4654" stroke-width="1" stroke-linecap="butt"/></g></g><text x="888.6666666666665" y="534" font-family="Archivo, 'Helvetica Neue', Arial, sans-serif" font-size="8" fill="#D99D1B" font-weight="700" text-anchor="end" letter-spacing="1.4">FOCUS MODE</text></g><rect x="539.3333333333333" y="356" width="361.3333333333333" height="190" rx="6" fill="none" stroke="#202227" stroke-width="1"/></g><g id="state_03"><rect x="946.6666666666666" y="264" width="397.3333333333333" height="300" rx="10" fill="#08090A" stroke="#202227" stroke-width="1"/><text x="964.6666666666666" y="292" font-family="'IBM Plex Mono', 'SFMono-Regular', Menlo, monospace" font-size="9" fill="#EA7600" font-weight="500" letter-spacing="1.5">STATE 03</text><text x="964.6666666666666" y="314" font-family="Newsreader, 'Times New Roman', Georgia, serif" font-size="15" fill="#F4F1E9" font-weight="500">Tools explained in place</text><text x="964.6666666666666" y="332" font-family="Archivo, 'Helvetica Neue', Arial, sans-serif" font-size="10.5" fill="#90959C"><tspan x="964.6666666666666" dy="0">Hover any tool for what, why, and what to try.</tspan></text><clipPath id="cl6_2"><rect x="964.6666666666666" y="356" width="361.3333333333333" height="190" rx="6"/></clipPath><g clip-path="url(#cl6_2)"><rect x="964.6666666666666" y="356" width="361.3333333333333" height="190" rx="6" fill="#0A0A0B" stroke="#2A2D33" stroke-width="1"/><rect x="964.6666666666666" y="356" width="361.3333333333333" height="16" rx="6" fill="#0E0F11"/><rect x="964.6666666666666" y="364" width="361.3333333333333" height="8" fill="#0E0F11"/><circle cx="974.6666666666666" cy="364" r="2" fill="#3A3D43"/><circle cx="981.6666666666666" cy="364" r="2" fill="#3A3D43"/><circle cx="988.6666666666666" cy="364" r="2" fill="#3A3D43"/><g id="vg" opacity="0.35"><line x1="838.1999999999999" y1="550" x2="1077.764" y2="190" stroke="#3B4654" stroke-width="1" stroke-linecap="butt"/><line x1="906.4518518518518" y1="550" x2="1092.7794074074072" y2="190" stroke="#3B4654" stroke-width="1" stroke-linecap="butt"/><line x1="974.7037037037037" y1="550" x2="1107.7948148148148" y2="190" stroke="#3B4654" stroke-width="1" stroke-linecap="butt"/><line x1="1042.9555555555555" y1="550" x2="1122.8102222222221" y2="190" stroke="#3B4654" stroke-width="1" stroke-linecap="butt"/><line x1="1111.2074074074073" y1="550" x2="1137.8256296296295" y2="190" stroke="#3B4654" stroke-width="1" stroke-linecap="butt"/><line x1="1179.4592592592592" y1="550" x2="1152.841037037037" y2="190" stroke="#3B4654" stroke-width="1" stroke-linecap="butt"/><line x1="1247.711111111111" y1="550" x2="1167.8564444444444" y2="190" stroke="#3B4654" stroke-width="1" stroke-linecap="butt"/><line x1="1315.9629629629628" y1="550" x2="1182.8718518518517" y2="190" stroke="#3B4654" stroke-width="1" stroke-linecap="butt"/><line x1="1384.2148148148149" y1="550" x2="1197.887259259259" y2="190" stroke="#3B4654" stroke-width="1" stroke-linecap="butt"/><line x1="1452.4666666666667" y1="550" x2="1212.9026666666666" y2="190" stroke="#3B4654" stroke-width="1" stroke-linecap="butt"/><line x1="838.1999999999999" y1="550.0" x2="1452.4666666666667" y2="550.0" stroke="#3B4654" stroke-width="1" stroke-linecap="butt"/><line x1="886.1127999999999" y1="478.0" x2="1404.5538666666666" y2="478.0" stroke="#3B4654" stroke-width="1" stroke-linecap="butt"/><line x1="934.0255999999999" y1="406.0" x2="1356.6410666666666" y2="406.0" stroke="#3B4654" stroke-width="1" stroke-linecap="butt"/><line x1="981.9383999999999" y1="334.0" x2="1308.7282666666665" y2="334.0" stroke="#3B4654" stroke-width="1" stroke-linecap="butt"/><line x1="1029.8512" y1="262.0" x2="1260.8154666666665" y2="262.0" stroke="#3B4654" stroke-width="1" stroke-linecap="butt"/><line x1="1077.764" y1="190.0" x2="1212.9026666666666" y2="190.0" stroke="#3B4654" stroke-width="1" stroke-linecap="butt"/></g><rect x="994.6666666666666" y="441.0" width="22" height="22" rx="5" fill="#15171B" stroke="#2A2D33" stroke-width="1"/><g id="ic_cube" fill="none" stroke="#CBC7BE" stroke-width="1.4" stroke-linecap="round" stroke-linejoin="round" opacity="1.0"><path d="M 1005.6666666666666 445.0 L 1012.6666666666666 448.9 L 1012.6666666666666 455.5 L 1005.6666666666666 459.0 L 998.6666666666666 455.5 L 998.6666666666666 448.9 Z"/><path d="M 998.6666666666666 448.9 L 1005.6666666666666 452.7 L 1012.6666666666666 448.9"/><line x1="1005.6666666666666" y1="452.7" x2="1005.6666666666666" y2="459.0"/></g><g id="ic_cursor" fill="none" stroke="#F4F1E9" stroke-width="1.5" stroke-linecap="round" stroke-linejoin="round" opacity="1.0"><path d="M 1013.7 458.0 L 1024.2 466.5 L 1018.5 467.0 L 1020.7 472.5"/></g><path d="M 1124.3333333333333 427.0 L 1131.3333333333333 422.0 L 1131.3333333333333 432.0 Z" fill="#10131A"/><rect x="1131.3333333333333" y="403.0" width="180.66666666666666" height="96" rx="7" fill="#10131A" stroke="#C26100" stroke-width="1"/><rect x="1131.3333333333333" y="403.0" width="3" height="96" rx="1.5" fill="#EA7600"/><text x="1145.3333333333333" y="421.0" font-family="Archivo, 'Helvetica Neue', Arial, sans-serif" font-size="9" fill="#EA7600" font-weight="700" letter-spacing="1.2">EXTRUDE</text><text x="1145.3333333333333" y="435.0" font-family="Archivo, 'Helvetica Neue', Arial, sans-serif" font-size="7.5" fill="#666B73" font-weight="700" letter-spacing="1">WHAT</text><text x="1175.3333333333333" y="435.0" font-family="Newsreader, 'Times New Roman', Georgia, serif" font-size="9" fill="#CBC7BE">Grows new geometry.</text><text x="1145.3333333333333" y="453.0" font-family="Archivo, 'Helvetica Neue', Arial, sans-serif" font-size="7.5" fill="#666B73" font-weight="700" letter-spacing="1">WHY</text><text x="1175.3333333333333" y="453.0" font-family="Newsreader, 'Times New Roman', Georgia, serif" font-size="9" fill="#CBC7BE">Turns a base into a body.</text><text x="1145.3333333333333" y="471.0" font-family="Archivo, 'Helvetica Neue', Arial, sans-serif" font-size="7.5" fill="#666B73" font-weight="700" letter-spacing="1">TRY</text><text x="1175.3333333333333" y="471.0" font-family="Newsreader, 'Times New Roman', Georgia, serif" font-size="9" fill="#CBC7BE">Press E, pull up.</text></g><rect x="964.6666666666666" y="356" width="361.3333333333333" height="190" rx="6" fill="none" stroke="#202227" stroke-width="1"/></g><g id="state_04"><rect x="96.0" y="590" width="397.3333333333333" height="300" rx="10" fill="#08090A" stroke="#202227" stroke-width="1"/><text x="114.0" y="618" font-family="'IBM Plex Mono', 'SFMono-Regular', Menlo, monospace" font-size="9" fill="#EA7600" font-weight="500" letter-spacing="1.5">STATE 04</text><text x="114.0" y="640" font-family="Newsreader, 'Times New Roman', Georgia, serif" font-size="15" fill="#F4F1E9" font-weight="500">Always-visible shortcuts</text><text x="114.0" y="658" font-family="Archivo, 'Helvetica Neue', Arial, sans-serif" font-size="10.5" fill="#90959C"><tspan x="114.0" dy="0">The few keys that matter, never more than a glance away.</tspan></text><clipPath id="cl6_3"><rect x="114.0" y="682" width="361.3333333333333" height="190" rx="6"/></clipPath><g clip-path="url(#cl6_3)"><rect x="114.0" y="682" width="361.3333333333333" height="190" rx="6" fill="#0A0A0B" stroke="#2A2D33" stroke-width="1"/><text x="130.0" y="706" font-family="Archivo, 'Helvetica Neue', Arial, sans-serif" font-size="10" fill="#EA7600" font-weight="700" letter-spacing="2">ESSENTIALS</text><text x="459.3333333333333" y="706" font-family="'IBM Plex Mono', 'SFMono-Regular', Menlo, monospace" font-size="8.5" fill="#666B73" text-anchor="end" letter-spacing="0.3">always one key away</text><line x1="130.0" y1="714" x2="459.3333333333333" y2="714" stroke="#202227" stroke-width="1" stroke-linecap="butt"/><rect x="130.0" y="732.0" width="26" height="20" rx="4" fill="#121316" stroke="#2A2D33" stroke-width="1"/><text x="143.0" y="745.5" font-family="'IBM Plex Mono', 'SFMono-Regular', Menlo, monospace" font-size="8.5" fill="#F4F1E9" font-weight="500" text-anchor="middle">G</text><text x="168.0" y="745.5" font-family="Archivo, 'Helvetica Neue', Arial, sans-serif" font-size="10" fill="#CBC7BE" font-weight="500">Move</text><rect x="294.66666666666663" y="732.0" width="26" height="20" rx="4" fill="#121316" stroke="#2A2D33" stroke-width="1"/><text x="307.66666666666663" y="745.5" font-family="'IBM Plex Mono', 'SFMono-Regular', Menlo, monospace" font-size="8.5" fill="#F4F1E9" font-weight="500" text-anchor="middle">R</text><text x="332.66666666666663" y="745.5" font-family="Archivo, 'Helvetica Neue', Arial, sans-serif" font-size="10" fill="#CBC7BE" font-weight="500">Rotate</text><rect x="130.0" y="772.0" width="26" height="20" rx="4" fill="#121316" stroke="#2A2D33" stroke-width="1"/><text x="143.0" y="785.5" font-family="'IBM Plex Mono', 'SFMono-Regular', Menlo, monospace" font-size="8.5" fill="#F4F1E9" font-weight="500" text-anchor="middle">S</text><text x="168.0" y="785.5" font-family="Archivo, 'Helvetica Neue', Arial, sans-serif" font-size="10" fill="#CBC7BE" font-weight="500">Scale</text><rect x="294.66666666666663" y="772.0" width="26" height="20" rx="4" fill="#121316" stroke="#2A2D33" stroke-width="1"/><text x="307.66666666666663" y="785.5" font-family="'IBM Plex Mono', 'SFMono-Regular', Menlo, monospace" font-size="8.5" fill="#F4F1E9" font-weight="500" text-anchor="middle">E</text><text x="332.66666666666663" y="785.5" font-family="Archivo, 'Helvetica Neue', Arial, sans-serif" font-size="10" fill="#CBC7BE" font-weight="500">Extrude</text><rect x="130.0" y="812.0" width="44" height="20" rx="4" fill="#121316" stroke="#2A2D33" stroke-width="1"/><text x="152.0" y="825.5" font-family="'IBM Plex Mono', 'SFMono-Regular', Menlo, monospace" font-size="8.5" fill="#F4F1E9" font-weight="500" text-anchor="middle">Tab</text><text x="186.0" y="825.5" font-family="Archivo, 'Helvetica Neue', Arial, sans-serif" font-size="10" fill="#CBC7BE" font-weight="500">Edit / Object</text><rect x="294.66666666666663" y="812.0" width="80" height="20" rx="4" fill="#121316" stroke="#2A2D33" stroke-width="1"/><text x="334.66666666666663" y="825.5" font-family="'IBM Plex Mono', 'SFMono-Regular', Menlo, monospace" font-size="8.5" fill="#F4F1E9" font-weight="500" text-anchor="middle">Shift C</text><text x="386.66666666666663" y="825.5" font-family="Archivo, 'Helvetica Neue', Arial, sans-serif" font-size="10" fill="#CBC7BE" font-weight="500">Recenter</text></g><rect x="114.0" y="682" width="361.3333333333333" height="190" rx="6" fill="none" stroke="#202227" stroke-width="1"/></g><g id="state_05"><rect x="521.3333333333333" y="590" width="397.3333333333333" height="300" rx="10" fill="#08090A" stroke="#202227" stroke-width="1"/><text x="539.3333333333333" y="618" font-family="'IBM Plex Mono', 'SFMono-Regular', Menlo, monospace" font-size="9" fill="#EA7600" font-weight="500" letter-spacing="1.5">STATE 05</text><text x="539.3333333333333" y="640" font-family="Newsreader, 'Times New Roman', Georgia, serif" font-size="15" fill="#F4F1E9" font-weight="500">Checkpoints as progress</text><text x="539.3333333333333" y="658" font-family="Archivo, 'Helvetica Neue', Arial, sans-serif" font-size="10.5" fill="#90959C"><tspan x="539.3333333333333" dy="0">Each stage saved and celebrated as a small win.</tspan></text><clipPath id="cl6_4"><rect x="539.3333333333333" y="682" width="361.3333333333333" height="190" rx="6"/></clipPath><g clip-path="url(#cl6_4)"><rect x="539.3333333333333" y="682" width="361.3333333333333" height="190" rx="6" fill="#0A0A0B" stroke="#2A2D33" stroke-width="1"/><rect x="539.3333333333333" y="682" width="361.3333333333333" height="16" rx="6" fill="#0E0F11"/><rect x="539.3333333333333" y="690" width="361.3333333333333" height="8" fill="#0E0F11"/><circle cx="549.3333333333333" cy="690" r="2" fill="#3A3D43"/><circle cx="556.3333333333333" cy="690" r="2" fill="#3A3D43"/><circle cx="563.3333333333333" cy="690" r="2" fill="#3A3D43"/><g id="vg" opacity="0.32"><line x1="412.86666666666656" y1="876" x2="652.4306666666665" y2="516" stroke="#3B4654" stroke-width="1" stroke-linecap="butt"/><line x1="481.1185185185184" y1="876" x2="667.446074074074" y2="516" stroke="#3B4654" stroke-width="1" stroke-linecap="butt"/><line x1="549.3703703703702" y1="876" x2="682.4614814814813" y2="516" stroke="#3B4654" stroke-width="1" stroke-linecap="butt"/><line x1="617.622222222222" y1="876" x2="697.4768888888888" y2="516" stroke="#3B4654" stroke-width="1" stroke-linecap="butt"/><line x1="685.874074074074" y1="876" x2="712.4922962962961" y2="516" stroke="#3B4654" stroke-width="1" stroke-linecap="butt"/><line x1="754.1259259259258" y1="876" x2="727.5077037037036" y2="516" stroke="#3B4654" stroke-width="1" stroke-linecap="butt"/><line x1="822.3777777777776" y1="876" x2="742.523111111111" y2="516" stroke="#3B4654" stroke-width="1" stroke-linecap="butt"/><line x1="890.6296296296296" y1="876" x2="757.5385185185183" y2="516" stroke="#3B4654" stroke-width="1" stroke-linecap="butt"/><line x1="958.8814814814814" y1="876" x2="772.5539259259258" y2="516" stroke="#3B4654" stroke-width="1" stroke-linecap="butt"/><line x1="1027.1333333333332" y1="876" x2="787.5693333333331" y2="516" stroke="#3B4654" stroke-width="1" stroke-linecap="butt"/><line x1="412.86666666666656" y1="876.0" x2="1027.1333333333332" y2="876.0" stroke="#3B4654" stroke-width="1" stroke-linecap="butt"/><line x1="460.77946666666656" y1="804.0" x2="979.2205333333332" y2="804.0" stroke="#3B4654" stroke-width="1" stroke-linecap="butt"/><line x1="508.69226666666657" y1="732.0" x2="931.3077333333332" y2="732.0" stroke="#3B4654" stroke-width="1" stroke-linecap="butt"/><line x1="556.6050666666665" y1="660.0" x2="883.3949333333333" y2="660.0" stroke="#3B4654" stroke-width="1" stroke-linecap="butt"/><line x1="604.5178666666666" y1="588.0" x2="835.4821333333332" y2="588.0" stroke="#3B4654" stroke-width="1" stroke-linecap="butt"/><line x1="652.4306666666665" y1="516.0" x2="787.5693333333332" y2="516.0" stroke="#3B4654" stroke-width="1" stroke-linecap="butt"/></g><g id="cm" opacity="0.85"><ellipse cx="662.1866666666666" cy="763.0" rx="26" ry="7.8" fill="none" stroke="#6C8DAF" stroke-width="1.3"/><ellipse cx="662.1866666666666" cy="811.0" rx="26" ry="7.8" fill="none" stroke="#6C8DAF" stroke-width="1.3" opacity="0.55"/><ellipse cx="662.1866666666666" cy="775.0" rx="26" ry="7.8" fill="none" stroke="#6C8DAF" stroke-width="1.3" opacity="0.32"/><ellipse cx="662.1866666666666" cy="787.0" rx="26" ry="7.8" fill="none" stroke="#6C8DAF" stroke-width="1.3" opacity="0.32"/><ellipse cx="662.1866666666666" cy="799.0" rx="26" ry="7.8" fill="none" stroke="#6C8DAF" stroke-width="1.3" opacity="0.32"/><line x1="688.1866666666666" y1="763.0" x2="688.1866666666666" y2="811.0" stroke="#6C8DAF" stroke-width="1.3" stroke-linecap="butt" opacity="0.5"/><line x1="684.703327165062" y1="766.9" x2="684.703327165062" y2="814.9" stroke="#6C8DAF" stroke-width="1.3" stroke-linecap="butt" opacity="0.5"/><line x1="675.1866666666666" y1="769.7549981495187" x2="675.1866666666666" y2="817.7549981495187" stroke="#6C8DAF" stroke-width="1.3" stroke-linecap="butt" opacity="0.5"/><line x1="662.1866666666666" y1="770.8" x2="662.1866666666666" y2="818.8" stroke="#6C8DAF" stroke-width="1.3" stroke-linecap="butt" opacity="0.5"/><line x1="649.1866666666666" y1="769.7549981495187" x2="649.1866666666666" y2="817.7549981495187" stroke="#6C8DAF" stroke-width="1.3" stroke-linecap="butt" opacity="0.5"/><line x1="639.6700061682712" y1="766.9" x2="639.6700061682712" y2="814.9" stroke="#6C8DAF" stroke-width="1.3" stroke-linecap="butt" opacity="0.5"/><line x1="636.1866666666666" y1="763.0" x2="636.1866666666666" y2="811.0" stroke="#6C8DAF" stroke-width="1.3" stroke-linecap="butt" opacity="0.5"/><line x1="639.6700061682712" y1="759.1" x2="639.6700061682712" y2="807.1" stroke="#6C8DAF" stroke-width="1.3" stroke-linecap="butt" opacity="0.5"/><line x1="649.1866666666666" y1="756.2450018504813" x2="649.1866666666666" y2="804.2450018504813" stroke="#6C8DAF" stroke-width="1.3" stroke-linecap="butt" opacity="0.5"/><line x1="662.1866666666666" y1="755.2" x2="662.1866666666666" y2="803.2" stroke="#6C8DAF" stroke-width="1.3" stroke-linecap="butt" opacity="0.5"/><line x1="675.1866666666666" y1="756.2450018504813" x2="675.1866666666666" y2="804.2450018504813" stroke="#6C8DAF" stroke-width="1.3" stroke-linecap="butt" opacity="0.5"/><line x1="684.703327165062" y1="759.1" x2="684.703327165062" y2="807.1" stroke="#6C8DAF" stroke-width="1.3" stroke-linecap="butt" opacity="0.5"/><line x1="636.1866666666666" y1="763.0" x2="636.1866666666666" y2="811.0" stroke="#6C8DAF" stroke-width="1.3" stroke-linecap="butt"/><line x1="688.1866666666666" y1="763.0" x2="688.1866666666666" y2="811.0" stroke="#6C8DAF" stroke-width="1.3" stroke-linecap="butt"/><path d="M 684.1866666666666 761.0 C 746.1866666666666 757.0, 746.1866666666666 817.0, 684.1866666666666 813.0" fill="none" stroke="#6C8DAF" stroke-width="1.3"/></g><rect x="718.4533333333331" y="745.0" width="166.21333333333334" height="64" rx="8" fill="#100D08" stroke="#C26100" stroke-width="1"/><text x="732.4533333333331" y="767.0" font-family="Archivo, 'Helvetica Neue', Arial, sans-serif" font-size="9.5" fill="#EA7600" font-weight="700" letter-spacing="1">STAGE 2 COMPLETE</text><text x="732.4533333333331" y="783.0" font-family="Newsreader, 'Times New Roman', Georgia, serif" font-size="9.5" fill="#CBC7BE">Body of the mug formed.</text><circle cx="736.4533333333331" cy="797.0" r="4" fill="#EA7600" stroke="#EA7600" stroke-width="1.4"/><circle cx="752.4533333333331" cy="797.0" r="4" fill="#EA7600" stroke="#EA7600" stroke-width="1.4"/><circle cx="768.4533333333331" cy="797.0" r="4" fill="none" stroke="#2A2D33" stroke-width="1.4"/><circle cx="784.4533333333331" cy="797.0" r="4" fill="none" stroke="#2A2D33" stroke-width="1.4"/></g><rect x="539.3333333333333" y="682" width="361.3333333333333" height="190" rx="6" fill="none" stroke="#202227" stroke-width="1"/></g><g id="state_06"><rect x="946.6666666666666" y="590" width="397.3333333333333" height="300" rx="10" fill="#08090A" stroke="#202227" stroke-width="1"/><text x="964.6666666666666" y="618" font-family="'IBM Plex Mono', 'SFMono-Regular', Menlo, monospace" font-size="9" fill="#EA7600" font-weight="500" letter-spacing="1.5">STATE 06</text><text x="964.6666666666666" y="640" font-family="Newsreader, 'Times New Roman', Georgia, serif" font-size="15" fill="#F4F1E9" font-weight="500">One-tap recovery</text><text x="964.6666666666666" y="658" font-family="Archivo, 'Helvetica Neue', Arial, sans-serif" font-size="10.5" fill="#90959C"><tspan x="964.6666666666666" dy="0">Drift, mistake, or panic — recenter and continue.</tspan></text><clipPath id="cl6_5"><rect x="964.6666666666666" y="682" width="361.3333333333333" height="190" rx="6"/></clipPath><g clip-path="url(#cl6_5)"><rect x="964.6666666666666" y="682" width="361.3333333333333" height="190" rx="6" fill="#0A0A0B" stroke="#2A2D33" stroke-width="1"/><rect x="964.6666666666666" y="682" width="361.3333333333333" height="16" rx="6" fill="#0E0F11"/><rect x="964.6666666666666" y="690" width="361.3333333333333" height="8" fill="#0E0F11"/><circle cx="974.6666666666666" cy="690" r="2" fill="#3A3D43"/><circle cx="981.6666666666666" cy="690" r="2" fill="#3A3D43"/><circle cx="988.6666666666666" cy="690" r="2" fill="#3A3D43"/><g transform="rotate(-10 1145.3333333333333 789.0)"><g id="vg" opacity="0.3"><line x1="838.1999999999999" y1="876" x2="1077.764" y2="516" stroke="#3B4654" stroke-width="1" stroke-linecap="butt"/><line x1="906.4518518518518" y1="876" x2="1092.7794074074072" y2="516" stroke="#3B4654" stroke-width="1" stroke-linecap="butt"/><line x1="974.7037037037037" y1="876" x2="1107.7948148148148" y2="516" stroke="#3B4654" stroke-width="1" stroke-linecap="butt"/><line x1="1042.9555555555555" y1="876" x2="1122.8102222222221" y2="516" stroke="#3B4654" stroke-width="1" stroke-linecap="butt"/><line x1="1111.2074074074073" y1="876" x2="1137.8256296296295" y2="516" stroke="#3B4654" stroke-width="1" stroke-linecap="butt"/><line x1="1179.4592592592592" y1="876" x2="1152.841037037037" y2="516" stroke="#3B4654" stroke-width="1" stroke-linecap="butt"/><line x1="1247.711111111111" y1="876" x2="1167.8564444444444" y2="516" stroke="#3B4654" stroke-width="1" stroke-linecap="butt"/><line x1="1315.9629629629628" y1="876" x2="1182.8718518518517" y2="516" stroke="#3B4654" stroke-width="1" stroke-linecap="butt"/><line x1="1384.2148148148149" y1="876" x2="1197.887259259259" y2="516" stroke="#3B4654" stroke-width="1" stroke-linecap="butt"/><line x1="1452.4666666666667" y1="876" x2="1212.9026666666666" y2="516" stroke="#3B4654" stroke-width="1" stroke-linecap="butt"/><line x1="838.1999999999999" y1="876.0" x2="1452.4666666666667" y2="876.0" stroke="#3B4654" stroke-width="1" stroke-linecap="butt"/><line x1="886.1127999999999" y1="804.0" x2="1404.5538666666666" y2="804.0" stroke="#3B4654" stroke-width="1" stroke-linecap="butt"/><line x1="934.0255999999999" y1="732.0" x2="1356.6410666666666" y2="732.0" stroke="#3B4654" stroke-width="1" stroke-linecap="butt"/><line x1="981.9383999999999" y1="660.0" x2="1308.7282666666665" y2="660.0" stroke="#3B4654" stroke-width="1" stroke-linecap="butt"/><line x1="1029.8512" y1="588.0" x2="1260.8154666666665" y2="588.0" stroke="#3B4654" stroke-width="1" stroke-linecap="butt"/><line x1="1077.764" y1="516.0" x2="1212.9026666666666" y2="516.0" stroke="#3B4654" stroke-width="1" stroke-linecap="butt"/></g></g><text x="978.6666666666666" y="860" font-family="'IBM Plex Mono', 'SFMono-Regular', Menlo, monospace" font-size="8.5" fill="#666B73" letter-spacing="0.3">view drifted</text><rect x="1079.3333333333333" y="760.0" width="132" height="34" rx="8" fill="#1A140C" stroke="#EA7600" stroke-width="1.5"/><g id="ic_recover" fill="none" stroke="#EA7600" stroke-width="1.6" stroke-linecap="round" stroke-linejoin="round" opacity="1.0"><path d="M 1107.5 777.0 A 6.2 6.2 0 1 1 1101.3 770.8"/><path d="M 1101.3 765.8 L 1101.3 775.8 L 1094.3 770.8 Z" fill="#EA7600" stroke="none"/></g><text x="1119.3333333333333" y="780.6" font-family="Archivo, 'Helvetica Neue', Arial, sans-serif" font-size="9.5" fill="#EA7600" font-weight="700" letter-spacing="1">RECENTER VIEW</text><text x="1312.0" y="860" font-family="'IBM Plex Mono', 'SFMono-Regular', Menlo, monospace" font-size="8.5" fill="#D99D1B" text-anchor="end" letter-spacing="0.3">Shift C</text></g><rect x="964.6666666666666" y="682" width="361.3333333333333" height="190" rx="6" fill="none" stroke="#202227" stroke-width="1"/></g></g>
</svg>
