<?xml version="1.0" encoding="UTF-8"?>
<svg width="1440" height="1024" viewBox="0 0 1440 1024" fill="none" xmlns="http://www.w3.org/2000/svg" xmlns:xlink="http://www.w3.org/1999/xlink">
<rect width="1440" height="1024" fill="#050505"/>
<g id="slide_07_impact_metrics"><g id="bg_radial" opacity="0.1"><circle cx="1262" cy="250" r="25.0" fill="none" stroke="#3B4654" stroke-width="1"/><circle cx="1262" cy="250" r="50.0" fill="none" stroke="#3B4654" stroke-width="1"/><circle cx="1262" cy="250" r="75.0" fill="none" stroke="#3B4654" stroke-width="1"/><circle cx="1262" cy="250" r="100.0" fill="none" stroke="#3B4654" stroke-width="1"/><circle cx="1262" cy="250" r="125.0" fill="none" stroke="#3B4654" stroke-width="1"/><circle cx="1262" cy="250" r="150.0" fill="none" stroke="#3B4654" stroke-width="1"/><line x1="1262" y1="250" x2="1412.0" y2="250.0" stroke="#3B4654" stroke-width="1" stroke-linecap="butt"/><line x1="1262" y1="250" x2="1402.9538931178863" y2="301.3030214988503" stroke="#3B4654" stroke-width="1" stroke-linecap="butt"/><line x1="1262" y1="250" x2="1376.9066664678467" y2="346.4181414529809" stroke="#3B4654" stroke-width="1" stroke-linecap="butt"/><line x1="1262" y1="250" x2="1337.0" y2="379.9038105676658" stroke="#3B4654" stroke-width="1" stroke-linecap="butt"/><line x1="1262" y1="250" x2="1288.0472266500396" y2="397.72116295183116" stroke="#3B4654" stroke-width="1" stroke-linecap="butt"/><line x1="1262" y1="250" x2="1235.9527733499604" y2="397.72116295183116" stroke="#3B4654" stroke-width="1" stroke-linecap="butt"/><line x1="1262" y1="250" x2="1187.0" y2="379.9038105676658" stroke="#3B4654" stroke-width="1" stroke-linecap="butt"/><line x1="1262" y1="250" x2="1147.0933335321533" y2="346.41814145298093" stroke="#3B4654" stroke-width="1" stroke-linecap="butt"/><line x1="1262" y1="250" x2="1121.0461068821137" y2="301.30302149885034" stroke="#3B4654" stroke-width="1" stroke-linecap="butt"/><line x1="1262" y1="250" x2="1112.0" y2="250.00000000000003" stroke="#3B4654" stroke-width="1" stroke-linecap="butt"/><line x1="1262" y1="250" x2="1121.0461068821137" y2="198.69697850114972" stroke="#3B4654" stroke-width="1" stroke-linecap="butt"/><line x1="1262" y1="250" x2="1147.0933335321533" y2="153.58185854701912" stroke="#3B4654" stroke-width="1" stroke-linecap="butt"/><line x1="1262" y1="250" x2="1187.0" y2="120.09618943233426" stroke="#3B4654" stroke-width="1" stroke-linecap="butt"/><line x1="1262" y1="250" x2="1235.9527733499604" y2="102.27883704816881" stroke="#3B4654" stroke-width="1" stroke-linecap="butt"/><line x1="1262" y1="250" x2="1288.0472266500394" y2="102.27883704816878" stroke="#3B4654" stroke-width="1" stroke-linecap="butt"/><line x1="1262" y1="250" x2="1337.0" y2="120.0961894323342" stroke="#3B4654" stroke-width="1" stroke-linecap="butt"/><line x1="1262" y1="250" x2="1376.9066664678467" y2="153.58185854701907" stroke="#3B4654" stroke-width="1" stroke-linecap="butt"/><line x1="1262" y1="250" x2="1402.9538931178863" y2="198.6969785011496" stroke="#3B4654" stroke-width="1" stroke-linecap="butt"/></g><g id="chrome"><text x="96" y="60" font-family="Archivo, 'Helvetica Neue', Arial, sans-serif" font-size="12.5" fill="#F4F1E9" font-weight="700" letter-spacing="3.2">THE FIRST HOUR</text><text x="96" y="76" font-family="Archivo, 'Helvetica Neue', Arial, sans-serif" font-size="10" fill="#666B73" font-weight="600" letter-spacing="3.2">MAKING BLENDER LEGIBLE</text><text x="1344" y="60" font-family="Archivo, 'Helvetica Neue', Arial, sans-serif" font-size="12.5" fill="#90959C" font-weight="600" text-anchor="end" letter-spacing="2.6">07 / IMPACT &amp; METRICS</text><text x="1344" y="76" font-family="'IBM Plex Mono', 'SFMono-Regular', Menlo, monospace" font-size="10" fill="#EA7600" font-weight="500" text-anchor="end" letter-spacing="1">07 — 07</text><line x1="96" y1="84" x2="1344" y2="84" stroke="#202227" stroke-width="1" stroke-linecap="butt"/><line x1="96" y1="960" x2="1344" y2="960" stroke="#202227" stroke-width="1" stroke-linecap="butt"/><text x="96" y="980" font-family="Archivo, 'Helvetica Neue', Arial, sans-serif" font-size="10" fill="#666B73" font-weight="600" letter-spacing="2.6">ALEXANDRA SUGATAN</text><text x="264" y="980" font-family="Archivo, 'Helvetica Neue', Arial, sans-serif" font-size="10" fill="#3C414A" font-weight="600" letter-spacing="2.6">UX / UI RESEARCH · PRODUCT DESIGN</text><text x="1344" y="980" font-family="'IBM Plex Mono', 'SFMono-Regular', Menlo, monospace" font-size="10" fill="#3C414A" font-weight="400" text-anchor="end" letter-spacing="1">COGS 127 · THE FIRST HOUR</text></g><text x="96" y="150" font-family="Archivo, 'Helvetica Neue', Arial, sans-serif" font-size="11" fill="#EA7600" font-weight="700" letter-spacing="3">IMPACT  ·  WHAT A LEGIBLE FIRST HOUR WOULD CHANGE</text><text x="96" y="198" font-family="Newsreader, 'Times New Roman', Georgia, serif" font-size="43" fill="#F4F1E9">Measuring a more legible first hour.</text><text x="96" y="236" font-family="Newsreader, 'Times New Roman', Georgia, serif" font-size="14.5" fill="#CBC7BE"><tspan x="96" dy="0">These are the signals we would instrument — not results we are claiming. Every one tracks a single idea: a</tspan><tspan x="96" dy="20">first hour a beginner can read, recover inside, and finish.</tspan></text><g id="kpi_01"><rect x="96.0" y="296" width="193.0" height="138" rx="8" fill="#0E0F11" stroke="#2A2D33" stroke-width="1"/><rect x="96.0" y="296" width="193.0" height="3" rx="1.5" fill="#EA7600"/><text x="112.0" y="320" font-family="'IBM Plex Mono', 'SFMono-Regular', Menlo, monospace" font-size="9" fill="#666B73" font-weight="500" letter-spacing="1">MEASURE 01</text><text x="112.0" y="340" font-family="Archivo, 'Helvetica Neue', Arial, sans-serif" font-size="11" fill="#F4F1E9" font-weight="700" letter-spacing="0.4"><tspan x="112.0" dy="0">TIME TO FIRST OBJECT</tspan></text><line x1="112.0" y1="360" x2="273.0" y2="360" stroke="#202227" stroke-width="1" stroke-linecap="butt"/><g id="tok"><path d="M 116.0 383.5 L 121.0 373.5 L 111.0 373.5 Z" fill="#EA7600" stroke="none"/><text x="128.0" y="382" font-family="Archivo, 'Helvetica Neue', Arial, sans-serif" font-size="9" fill="#EA7600" font-weight="700" letter-spacing="1.6">REDUCE</text></g><text x="112.0" y="402" font-family="Archivo, 'Helvetica Neue', Arial, sans-serif" font-size="9.5" fill="#90959C" font-weight="400"><tspan x="112.0" dy="0">Minutes from first open to a</tspan><tspan x="112.0" dy="13">finished mug. Design target:</tspan><tspan x="112.0" dy="13">under 15.</tspan></text></g><g id="kpi_02"><rect x="307.0" y="296" width="193.0" height="138" rx="8" fill="#0E0F11" stroke="#2A2D33" stroke-width="1"/><rect x="307.0" y="296" width="193.0" height="3" rx="1.5" fill="#2A2D33"/><text x="323.0" y="320" font-family="'IBM Plex Mono', 'SFMono-Regular', Menlo, monospace" font-size="9" fill="#666B73" font-weight="500" letter-spacing="1">MEASURE 02</text><text x="323.0" y="340" font-family="Archivo, 'Helvetica Neue', Arial, sans-serif" font-size="11" fill="#F4F1E9" font-weight="700" letter-spacing="0.4"><tspan x="323.0" dy="0">FIRST-SESSION COMPLETION</tspan></text><line x1="323.0" y1="360" x2="484.0" y2="360" stroke="#202227" stroke-width="1" stroke-linecap="butt"/><g id="tok"><path d="M 327.0 373.5 L 332.0 383.5 L 322.0 383.5 Z" fill="#CBC7BE" stroke="none"/><text x="339.0" y="382" font-family="Archivo, 'Helvetica Neue', Arial, sans-serif" font-size="9" fill="#CBC7BE" font-weight="700" letter-spacing="1.6">INCREASE</text></g><text x="323.0" y="402" font-family="Archivo, 'Helvetica Neue', Arial, sans-serif" font-size="9.5" fill="#90959C" font-weight="400"><tspan x="323.0" dy="0">Share of new users who finish one</tspan><tspan x="323.0" dy="13">real object in session one.</tspan></text></g><g id="kpi_03"><rect x="518.0" y="296" width="193.0" height="138" rx="8" fill="#0E0F11" stroke="#2A2D33" stroke-width="1"/><rect x="518.0" y="296" width="193.0" height="3" rx="1.5" fill="#2A2D33"/><text x="534.0" y="320" font-family="'IBM Plex Mono', 'SFMono-Regular', Menlo, monospace" font-size="9" fill="#666B73" font-weight="500" letter-spacing="1">MEASURE 03</text><text x="534.0" y="340" font-family="Archivo, 'Helvetica Neue', Arial, sans-serif" font-size="11" fill="#F4F1E9" font-weight="700" letter-spacing="0.4"><tspan x="534.0" dy="0">RECOVERY USAGE</tspan></text><line x1="534.0" y1="360" x2="695.0" y2="360" stroke="#202227" stroke-width="1" stroke-linecap="butt"/><g id="tok"><rect x="533.6" y="374.1" width="8.8" height="8.8" fill="none" stroke="#CBC7BE" stroke-width="1.4"/><text x="550.0" y="382" font-family="Archivo, 'Helvetica Neue', Arial, sans-serif" font-size="9" fill="#CBC7BE" font-weight="700" letter-spacing="1.6">INSTRUMENT</text></g><text x="534.0" y="402" font-family="Archivo, 'Helvetica Neue', Arial, sans-serif" font-size="9.5" fill="#90959C" font-weight="400"><tspan x="534.0" dy="0">Recenter and undo per session —</tspan><tspan x="534.0" dy="13">proof the safety net gets used,</tspan><tspan x="534.0" dy="13">not that users failed.</tspan></text></g><g id="kpi_04"><rect x="729.0" y="296" width="193.0" height="138" rx="8" fill="#0E0F11" stroke="#2A2D33" stroke-width="1"/><rect x="729.0" y="296" width="193.0" height="3" rx="1.5" fill="#2A2D33"/><text x="745.0" y="320" font-family="'IBM Plex Mono', 'SFMono-Regular', Menlo, monospace" font-size="9" fill="#666B73" font-weight="500" letter-spacing="1">MEASURE 04</text><text x="745.0" y="340" font-family="Archivo, 'Helvetica Neue', Arial, sans-serif" font-size="11" fill="#F4F1E9" font-weight="700" letter-spacing="0.4"><tspan x="745.0" dy="0">TUTORIAL ABANDONMENT</tspan></text><line x1="745.0" y1="360" x2="906.0" y2="360" stroke="#202227" stroke-width="1" stroke-linecap="butt"/><g id="tok"><path d="M 749.0 383.5 L 754.0 373.5 L 744.0 373.5 Z" fill="#CBC7BE" stroke="none"/><text x="761.0" y="382" font-family="Archivo, 'Helvetica Neue', Arial, sans-serif" font-size="9" fill="#CBC7BE" font-weight="700" letter-spacing="1.6">REDUCE</text></g><text x="745.0" y="402" font-family="Archivo, 'Helvetica Neue', Arial, sans-serif" font-size="9.5" fill="#90959C" font-weight="400"><tspan x="745.0" dy="0">Sessions that leave for outside</tspan><tspan x="745.0" dy="13">video inside the first hour.</tspan></text></g><g id="kpi_05"><rect x="940.0" y="296" width="193.0" height="138" rx="8" fill="#0E0F11" stroke="#2A2D33" stroke-width="1"/><rect x="940.0" y="296" width="193.0" height="3" rx="1.5" fill="#2A2D33"/><text x="956.0" y="320" font-family="'IBM Plex Mono', 'SFMono-Regular', Menlo, monospace" font-size="9" fill="#666B73" font-weight="500" letter-spacing="1">MEASURE 05</text><text x="956.0" y="340" font-family="Archivo, 'Helvetica Neue', Arial, sans-serif" font-size="11" fill="#F4F1E9" font-weight="700" letter-spacing="0.4"><tspan x="956.0" dy="0">SECOND-SESSION RETURN</tspan></text><line x1="956.0" y1="360" x2="1117.0" y2="360" stroke="#202227" stroke-width="1" stroke-linecap="butt"/><g id="tok"><path d="M 960.0 373.5 L 965.0 383.5 L 955.0 383.5 Z" fill="#CBC7BE" stroke="none"/><text x="972.0" y="382" font-family="Archivo, 'Helvetica Neue', Arial, sans-serif" font-size="9" fill="#CBC7BE" font-weight="700" letter-spacing="1.6">INCREASE</text></g><text x="956.0" y="402" font-family="Archivo, 'Helvetica Neue', Arial, sans-serif" font-size="9.5" fill="#90959C" font-weight="400"><tspan x="956.0" dy="0">New users who come back within</tspan><tspan x="956.0" dy="13">seven days of the first.</tspan></text></g><g id="kpi_06"><rect x="1151.0" y="296" width="193.0" height="138" rx="8" fill="#0E0F11" stroke="#2A2D33" stroke-width="1"/><rect x="1151.0" y="296" width="193.0" height="3" rx="1.5" fill="#2A2D33"/><text x="1167.0" y="320" font-family="'IBM Plex Mono', 'SFMono-Regular', Menlo, monospace" font-size="9" fill="#666B73" font-weight="500" letter-spacing="1">MEASURE 06</text><text x="1167.0" y="340" font-family="Archivo, 'Helvetica Neue', Arial, sans-serif" font-size="11" fill="#F4F1E9" font-weight="700" letter-spacing="0.4"><tspan x="1167.0" dy="0">CONFIDENCE DELTA</tspan></text><line x1="1167.0" y1="360" x2="1328.0" y2="360" stroke="#202227" stroke-width="1" stroke-linecap="butt"/><g id="tok"><path d="M 1171.0 373.5 L 1176.0 383.5 L 1166.0 383.5 Z" fill="#CBC7BE" stroke="none"/><text x="1183.0" y="382" font-family="Archivo, 'Helvetica Neue', Arial, sans-serif" font-size="9" fill="#CBC7BE" font-weight="700" letter-spacing="1.6">INCREASE</text></g><text x="1167.0" y="402" font-family="Archivo, 'Helvetica Neue', Arial, sans-serif" font-size="9.5" fill="#90959C" font-weight="400"><tspan x="1167.0" dy="0">Self-rated orientation, measured</tspan><tspan x="1167.0" dy="13">before versus after the first</tspan><tspan x="1167.0" dy="13">hour.</tspan></text></g><g id="hero_panel"><rect x="96" y="470" width="1248" height="340" rx="10" fill="#0E0F11" stroke="#2A2D33" stroke-width="1"/><text x="124" y="504" font-family="Archivo, 'Helvetica Neue', Arial, sans-serif" font-size="12.5" fill="#EA7600" font-weight="700" letter-spacing="2.6">REDUCE THE GRADIENT, NOT THE POWER</text><text x="124" y="522" font-family="Newsreader, 'Times New Roman', Georgia, serif" font-size="11.5" fill="#90959C" font-style="italic">Same destination. A first hour you can actually climb.</text><g id="legend"><text x="1316" y="498" font-family="Archivo, 'Helvetica Neue', Arial, sans-serif" font-size="9" fill="#CBC7BE" font-weight="700" text-anchor="end" letter-spacing="1.4">THE FIRST HOUR</text><line x1="1184" y1="494" x2="1206" y2="494" stroke="#EA7600" stroke-width="2.6" stroke-linecap="round"/><text x="1316" y="516" font-family="Archivo, 'Helvetica Neue', Arial, sans-serif" font-size="9" fill="#90959C" font-weight="700" text-anchor="end" letter-spacing="1.4">BLENDER TODAY</text><line x1="1184" y1="512" x2="1206" y2="512" stroke="#4E5C70" stroke-width="1.8" stroke-linecap="round"/></g><g id="plot_grid"><line x1="246" y1="612.5" x2="1300" y2="612.5" stroke="#141518" stroke-width="1" stroke-linecap="butt"/><line x1="246" y1="659.0" x2="1300" y2="659.0" stroke="#141518" stroke-width="1" stroke-linecap="butt"/><line x1="246" y1="705.5" x2="1300" y2="705.5" stroke="#141518" stroke-width="1" stroke-linecap="butt"/></g><line x1="246" y1="566" x2="1300" y2="566" stroke="#3C414A" stroke-width="1" stroke-linecap="butt" stroke-dasharray="2 5"/><text x="1300" y="558" font-family="Archivo, 'Helvetica Neue', Arial, sans-serif" font-size="8.5" fill="#90959C" font-weight="700" text-anchor="end" letter-spacing="1.8">MASTERY CEILING</text><rect x="246" y="566" width="168.64" height="186" fill="#EA7600" opacity="0.05"/><line x1="414.64" y1="566" x2="414.64" y2="752" stroke="#C26100" stroke-width="1" stroke-linecap="butt" opacity="0.5" stroke-dasharray="2 5"/><text x="330.32" y="558" font-family="Archivo, 'Helvetica Neue', Arial, sans-serif" font-size="8.5" fill="#EA7600" font-weight="700" text-anchor="middle" letter-spacing="1.8">FIRST HOUR</text><line x1="246" y1="752" x2="1300" y2="752" stroke="#2A2D33" stroke-width="1" stroke-linecap="butt"/><line x1="246" y1="562" x2="246" y2="756" stroke="#2A2D33" stroke-width="1" stroke-linecap="butt"/><text x="216" y="659" font-family="Archivo, 'Helvetica Neue', Arial, sans-serif" font-size="9" font-weight="700" letter-spacing="2" fill="#90959C" transform="rotate(-90 216 659)" text-anchor="middle">CAPABILITY</text><text x="246" y="778" font-family="'IBM Plex Mono', 'SFMono-Regular', Menlo, monospace" font-size="9" fill="#666B73" letter-spacing="0.8">FIRST OPEN</text><text x="1300" y="778" font-family="'IBM Plex Mono', 'SFMono-Regular', Menlo, monospace" font-size="9" fill="#666B73" text-anchor="end" letter-spacing="0.8">ONGOING USE</text><text x="773.0" y="778" font-family="Archivo, 'Helvetica Neue', Arial, sans-serif" font-size="10" fill="#90959C" font-weight="700" text-anchor="middle" letter-spacing="2.4">TIME INVESTED  →</text><g id="curve_today"><path d="M 246.0 752.0 L 259.2 752.0 L 272.4 751.9 L 285.5 751.9 L 298.7 751.8 L 311.9 751.8 L 325.1 751.7 L 338.2 751.7 L 351.4 751.6 L 364.6 751.5 L 377.8 751.4 L 390.9 751.3 L 404.1 751.1 L 417.3 751.0 L 430.4 750.8 L 443.6 750.6 L 456.8 750.4 L 470.0 750.1 L 483.1 749.8 L 496.3 749.4 L 509.5 749.0 L 522.7 748.6 L 535.9 748.0 L 549.0 747.5 L 562.2 746.8 L 575.4 746.0 L 588.5 745.1 L 601.7 744.1 L 614.9 743.0 L 628.1 741.7 L 641.2 740.2 L 654.4 738.6 L 667.6 736.8 L 680.8 734.7 L 694.0 732.4 L 707.1 729.8 L 720.3 727.0 L 733.5 723.8 L 746.6 720.3 L 759.8 716.5 L 773.0 712.3 L 786.2 707.9 L 799.4 703.0 L 812.5 697.9 L 825.7 692.4 L 838.9 686.6 L 852.0 680.6 L 865.2 674.4 L 878.4 668.0 L 891.6 661.6 L 904.8 655.1 L 917.9 648.6 L 931.1 642.2 L 944.3 636.0 L 957.5 629.9 L 970.6 624.1 L 983.8 618.6 L 997.0 613.3 L 1010.1 608.4 L 1023.3 603.9 L 1036.5 599.7 L 1049.7 595.8 L 1062.8 592.2 L 1076.0 589.0 L 1089.2 586.1 L 1102.4 583.5 L 1115.5 581.1 L 1128.7 579.0 L 1141.9 577.1 L 1155.1 575.4 L 1168.2 573.9 L 1181.4 572.6 L 1194.6 571.5 L 1207.8 570.4 L 1221.0 569.5 L 1234.1 568.7 L 1247.3 568.0 L 1260.5 567.4 L 1273.6 566.9 L 1286.8 566.4 L 1300.0 566.0" fill="none" stroke="#4E5C70" stroke-width="1.8" stroke-linecap="round" stroke-linejoin="round" opacity="0.95"/></g><g id="curve_firsthour"><path d="M 246.0 752.0 L 259.2 738.4 L 272.4 731.1 L 285.5 725.1 L 298.7 719.9 L 311.9 715.1 L 325.1 710.7 L 338.2 706.6 L 351.4 702.7 L 364.6 698.9 L 377.8 695.3 L 390.9 691.9 L 404.1 688.5 L 417.3 685.3 L 430.4 682.2 L 443.6 679.1 L 456.8 676.2 L 470.0 673.3 L 483.1 670.4 L 496.3 667.6 L 509.5 664.9 L 522.7 662.2 L 535.9 659.6 L 549.0 657.0 L 562.2 654.5 L 575.4 652.0 L 588.5 649.5 L 601.7 647.1 L 614.9 644.7 L 628.1 642.3 L 641.2 640.0 L 654.4 637.7 L 667.6 635.4 L 680.8 633.2 L 694.0 631.0 L 707.1 628.8 L 720.3 626.6 L 733.5 624.5 L 746.6 622.3 L 759.8 620.2 L 773.0 618.1 L 786.2 616.1 L 799.4 614.0 L 812.5 612.0 L 825.7 610.0 L 838.9 608.0 L 852.0 606.0 L 865.2 604.1 L 878.4 602.1 L 891.6 600.2 L 904.8 598.3 L 917.9 596.4 L 931.1 594.5 L 944.3 592.6 L 957.5 590.8 L 970.6 588.9 L 983.8 587.1 L 997.0 585.3 L 1010.1 583.5 L 1023.3 581.7 L 1036.5 579.9 L 1049.7 578.1 L 1062.8 576.4 L 1076.0 574.6 L 1089.2 572.9 L 1102.4 571.1 L 1115.5 569.4 L 1128.7 567.7 L 1141.9 566.0 L 1155.1 566.0 L 1168.2 566.0 L 1181.4 566.0 L 1194.6 566.0 L 1207.8 566.0 L 1221.0 566.0 L 1234.1 566.0 L 1247.3 566.0 L 1260.5 566.0 L 1273.6 566.0 L 1286.8 566.0 L 1300.0 566.0" fill="none" stroke="#EA7600" stroke-width="2.6" stroke-linecap="round" stroke-linejoin="round" opacity="1.0"/></g><circle cx="246" cy="752" r="3" fill="#050505" stroke="#90959C" stroke-width="1.4"/><circle cx="1194.6" cy="566.0" r="4" fill="#050505" stroke="#F4F1E9" stroke-width="1.6"/><circle cx="1194.6" cy="566.0" r="1.6" fill="#F4F1E9"/><line x1="1196.6" y1="572.0" x2="1205.6" y2="586.0" stroke="#2A2D33" stroke-width="1" stroke-linecap="butt"/><text x="1207.6" y="592.0" font-family="Newsreader, 'Times New Roman', Georgia, serif" font-size="10" fill="#CBC7BE" font-style="italic">Same power.</text><text x="1207.6" y="606.0" font-family="Newsreader, 'Times New Roman', Georgia, serif" font-size="10" fill="#CBC7BE" font-style="italic">Same ceiling.</text><text x="1207.6" y="620.0" font-family="Newsreader, 'Times New Roman', Georgia, serif" font-size="10" fill="#90959C" font-style="italic">Unchanged.</text><g id="traction_bracket"><line x1="367.21000000000004" y1="698.1846869087011" x2="367.21000000000004" y2="751.477710690991" stroke="#D99D1B" stroke-width="1.2" stroke-linecap="round"/><line x1="363.21000000000004" y1="698.1846869087011" x2="371.21000000000004" y2="698.1846869087011" stroke="#D99D1B" stroke-width="1.2" stroke-linecap="round"/><line x1="363.21000000000004" y1="751.477710690991" x2="371.21000000000004" y2="751.477710690991" stroke="#D99D1B" stroke-width="1.2" stroke-linecap="round"/></g><text x="381.21000000000004" y="720.8311987998461" font-family="Archivo, 'Helvetica Neue', Arial, sans-serif" font-size="8.5" fill="#EA7600" font-weight="700" letter-spacing="1.4">EARLY TRACTION</text><text x="381.21000000000004" y="735.8311987998461" font-family="Newsreader, 'Times New Roman', Georgia, serif" font-size="10.5" fill="#90959C" font-style="italic">real progress in the first hour</text><text x="562.2" y="744" font-family="Newsreader, 'Times New Roman', Georgia, serif" font-size="10.5" fill="#666B73" font-style="italic">the flat hour — no traction</text></g><line x1="96" y1="848" x2="1344" y2="848" stroke="#202227" stroke-width="1" stroke-linecap="butt"/><text x="96" y="888" font-family="Newsreader, 'Times New Roman', Georgia, serif" font-size="27" fill="#F4F1E9"><tspan>Blender does not need to be less powerful. It needs to become </tspan><tspan font-style="italic" fill="#EA7600">more legible.</tspan></text></g>
</svg>
